<svg id="svg" version="1.1" xmlns="http://www.w3.org/2000/svg" xmlns:xlink="http://www.w3.org/1999/xlink" width="400" height="400" viewBox="0, 0, 400,400"><g id="svgg"><path id="path0" d="M167.357 119.031 C 166.984 120.513,167.635 120.787,171.554 120.794 C 177.572 120.805,180.812 122.381,182.288 126.014 C 183.672 129.422,183.426 132.981,180.817 147.300 C 180.607 148.455,180.059 151.560,179.600 154.200 C 179.141 156.840,178.593 159.945,178.383 161.100 C 178.172 162.255,177.828 164.145,177.617 165.300 C 177.407 166.455,176.859 169.560,176.400 172.200 C 175.941 174.840,175.401 177.900,175.200 179.000 C 174.874 180.788,173.847 186.653,172.785 192.800 C 172.576 194.010,172.404 195.135,172.402 195.300 C 172.401 195.465,176.360 195.600,181.200 195.600 C 186.040 195.600,190.001 195.555,190.002 195.500 C 190.004 195.445,190.176 194.410,190.385 193.200 C 191.447 187.053,192.474 181.188,192.800 179.400 C 193.001 178.300,193.541 175.240,194.000 172.600 C 194.459 169.960,194.999 166.900,195.200 165.800 C 195.401 164.700,195.941 161.640,196.400 159.000 C 196.859 156.360,197.399 153.300,197.600 152.200 C 197.979 150.123,199.358 142.230,200.011 138.400 C 202.259 125.215,206.409 120.820,216.624 120.805 C 220.259 120.799,221.724 120.176,220.975 118.954 C 220.592 118.328,219.873 118.277,213.575 118.430 C 203.894 118.666,171.810 118.510,169.511 118.217 C 167.718 117.988,167.608 118.029,167.357 119.031 M165.823 231.900 C 165.426 234.265,164.951 237.010,164.768 238.000 C 164.058 241.841,163.604 244.377,162.800 249.000 C 162.341 251.640,161.803 254.700,161.605 255.800 C 161.407 256.900,160.961 259.420,160.613 261.400 C 154.978 293.473,146.913 310.959,133.581 320.013 C 130.772 321.921,130.332 323.444,132.617 323.350 C 139.019 323.087,158.018 309.137,163.873 300.400 C 170.521 290.479,175.852 275.106,179.200 256.200 C 179.395 255.100,179.827 252.670,180.160 250.800 C 181.119 245.415,182.016 240.369,182.400 238.200 C 182.595 237.100,183.031 234.670,183.370 232.800 C 183.708 230.930,183.989 228.995,183.993 228.500 L 184.000 227.600 175.272 227.600 L 166.545 227.600 165.823 231.900 M224.478 255.979 C 216.277 258.772,215.584 272.127,223.428 276.200 C 229.680 279.446,237.208 277.447,239.610 271.903 C 244.230 261.244,235.620 252.184,224.478 255.979 " stroke="none" fill="#343332" fill-rule="evenodd"></path><path id="path1" d="M0.000 200.000 L 0.000 400.000 200.000 400.000 L 400.000 400.000 400.000 200.000 L 400.000 0.000 200.000 0.000 L 0.000 0.000 0.000 200.000 M194.200 117.800 C 202.120 117.800,211.311 117.644,214.624 117.452 C 221.210 117.072,222.000 117.279,222.000 119.380 C 222.000 120.837,221.268 121.128,216.385 121.607 C 207.369 122.491,204.495 124.570,202.434 131.700 C 202.195 132.525,201.820 133.798,201.600 134.528 C 201.380 135.259,201.200 136.246,201.200 136.723 C 201.200 137.199,201.027 138.356,200.816 139.294 C 200.401 141.140,199.888 143.905,199.200 148.000 C 198.960 149.430,198.592 151.545,198.382 152.700 C 198.172 153.855,197.828 155.745,197.618 156.900 C 197.408 158.055,197.040 160.170,196.800 161.600 C 196.560 163.030,196.192 165.145,195.982 166.300 C 195.772 167.455,195.428 169.345,195.218 170.500 C 195.008 171.655,194.640 173.770,194.400 175.200 C 193.894 178.214,193.416 180.900,192.836 184.000 C 192.610 185.210,192.211 187.460,191.949 189.000 C 191.688 190.540,191.263 192.790,191.006 194.000 L 190.537 196.200 181.168 196.200 L 171.800 196.200 171.848 194.400 C 171.875 193.410,172.086 191.610,172.316 190.400 C 172.547 189.190,172.936 187.030,173.182 185.600 C 173.858 181.662,174.432 178.398,174.800 176.400 C 174.982 175.410,175.318 173.520,175.546 172.200 C 175.774 170.880,176.158 168.720,176.400 167.400 C 176.642 166.080,177.026 163.920,177.254 162.600 C 177.482 161.280,177.818 159.390,178.000 158.400 C 178.315 156.688,178.656 154.746,179.632 149.100 C 180.189 145.879,180.764 142.714,181.250 140.200 C 183.815 126.926,181.665 122.499,172.223 121.616 C 166.390 121.071,165.488 120.452,166.842 117.922 C 167.272 117.118,167.447 117.106,173.542 117.448 C 176.984 117.642,186.280 117.800,194.200 117.800 M134.792 172.743 C 134.784 173.364,128.286 182.006,121.166 190.866 C 117.447 195.495,117.360 195.900,120.632 193.355 C 133.298 183.505,143.860 178.395,151.800 178.278 C 170.384 178.003,149.807 207.033,124.475 216.828 C 113.903 220.916,103.048 219.969,105.609 215.184 C 106.150 214.173,107.335 214.309,107.538 215.405 C 108.218 219.067,118.532 217.554,129.400 212.197 C 149.870 202.107,165.370 179.641,151.265 180.505 C 140.374 181.173,117.730 195.461,106.257 208.904 C 93.052 224.376,82.322 234.459,81.458 232.207 C 80.994 230.998,91.624 219.078,101.895 209.289 C 109.461 202.078,116.551 193.712,129.598 176.600 C 133.568 171.393,134.821 170.463,134.792 172.743 M182.490 213.685 C 182.961 214.394,183.468 214.573,185.039 214.585 C 188.011 214.608,187.962 215.766,184.914 217.567 C 182.031 219.271,180.765 220.231,181.039 220.506 C 181.702 221.169,192.444 217.861,195.264 216.124 C 200.039 213.185,204.800 212.709,204.800 215.172 C 204.800 215.814,204.483 215.913,202.500 215.895 C 200.172 215.873,196.400 217.139,196.400 217.942 C 196.400 218.155,197.202 218.717,198.182 219.191 L 199.964 220.054 204.682 218.799 C 207.277 218.109,210.773 216.927,212.450 216.172 C 216.727 214.248,219.376 214.603,220.203 217.210 C 220.774 219.008,226.715 218.093,229.231 215.819 C 231.022 214.202,231.812 214.039,232.123 215.226 C 232.329 216.014,232.395 216.023,233.562 215.419 C 238.307 212.966,241.380 215.227,238.153 218.799 C 236.217 220.943,237.308 220.818,248.898 217.567 C 250.933 216.997,251.831 217.332,251.385 218.495 C 251.065 219.329,238.661 222.779,235.929 222.794 C 233.331 222.808,233.201 220.943,235.634 218.567 C 239.101 215.182,234.851 216.541,227.892 221.043 C 224.473 223.254,222.864 223.323,223.996 221.208 C 224.392 220.467,224.309 220.400,223.001 220.400 C 222.216 220.400,220.959 220.143,220.207 219.829 C 218.905 219.284,218.712 219.322,216.133 220.620 C 211.202 223.100,207.200 223.443,207.200 221.385 C 207.200 220.493,207.080 220.415,206.100 220.661 C 205.495 220.814,203.020 221.459,200.600 222.096 C 195.377 223.471,193.214 223.768,192.400 223.224 C 191.488 222.614,192.362 221.539,194.184 221.028 L 195.717 220.598 194.717 220.063 C 193.844 219.595,193.321 219.653,190.559 220.520 C 181.243 223.446,176.046 223.381,177.931 220.362 C 178.702 219.127,178.466 219.113,174.770 220.180 C 165.820 222.762,158.649 223.440,157.461 221.816 C 156.944 221.109,156.838 221.114,154.385 221.942 C 150.388 223.292,147.444 222.670,148.644 220.729 C 148.840 220.412,148.633 220.358,147.963 220.551 C 136.131 223.962,128.119 223.052,131.019 218.627 C 133.133 215.401,143.200 213.020,143.200 215.746 C 143.200 217.509,141.886 218.155,137.832 218.387 C 133.428 218.640,131.130 219.894,133.830 220.572 C 135.919 221.096,148.606 218.592,151.507 217.083 C 156.264 214.608,157.208 214.235,159.131 214.074 C 160.806 213.934,161.491 214.063,162.331 214.675 C 162.919 215.103,163.715 215.571,164.100 215.714 C 165.358 216.182,164.840 217.184,162.600 218.617 C 158.763 221.072,159.745 221.233,168.200 219.537 C 175.640 218.044,179.822 216.409,179.677 215.049 C 179.428 212.725,181.262 211.836,182.490 213.685 M156.600 216.760 C 154.652 217.664,151.445 219.979,151.737 220.270 C 152.303 220.836,161.397 217.043,161.003 216.405 C 160.608 215.766,158.350 215.948,156.600 216.760 M215.302 217.190 C 213.869 217.530,209.850 220.122,210.429 220.332 C 211.413 220.689,217.200 217.998,217.200 217.183 C 217.200 216.755,217.132 216.756,215.302 217.190 M184.938 228.000 C 184.904 228.550,184.679 230.125,184.438 231.500 C 184.197 232.875,183.805 235.125,183.566 236.500 C 183.327 237.875,182.982 239.810,182.800 240.800 C 182.447 242.714,181.911 245.758,181.180 250.000 C 179.885 257.507,178.510 264.293,177.248 269.400 C 176.881 270.886,176.672 271.649,175.600 275.400 C 175.380 276.170,175.042 277.385,174.848 278.100 C 169.133 299.218,157.651 312.789,137.315 322.458 C 132.547 324.725,131.454 324.863,130.665 323.300 C 129.901 321.786,130.081 321.496,133.128 319.336 C 139.921 314.521,150.000 301.417,150.000 297.400 C 150.000 297.285,150.350 296.428,150.777 295.496 C 151.788 293.290,154.277 285.820,155.273 282.000 C 155.703 280.350,156.228 278.370,156.438 277.600 C 156.649 276.830,156.996 275.345,157.211 274.300 C 157.425 273.255,157.796 271.455,158.035 270.300 C 158.877 266.236,159.200 264.577,159.612 262.200 C 160.421 257.532,160.872 254.979,161.202 253.200 C 162.022 248.783,162.514 246.015,163.620 239.600 C 163.867 238.170,164.218 236.190,164.400 235.200 C 164.582 234.210,164.930 232.154,165.174 230.631 C 165.830 226.526,165.141 226.770,175.755 226.893 L 185.000 227.000 184.938 228.000 M232.600 254.647 C 238.656 255.684,241.340 259.223,241.360 266.200 C 241.380 272.938,238.954 276.558,233.310 278.216 C 221.069 281.812,211.727 266.979,220.342 257.627 C 222.281 255.522,227.178 253.795,230.000 254.222 C 230.550 254.305,231.720 254.496,232.600 254.647 " stroke="none" fill="#ebe3e3" fill-rule="evenodd"></path><path id="path2" d="M171.507 117.890 C 172.226 117.979,173.306 117.977,173.907 117.886 C 174.508 117.795,173.920 117.722,172.600 117.724 C 171.280 117.726,170.788 117.801,171.507 117.890 M214.707 117.890 C 215.426 117.979,216.506 117.977,217.107 117.886 C 217.708 117.795,217.120 117.722,215.800 117.724 C 214.480 117.726,213.988 117.801,214.707 117.890 M178.500 118.287 C 179.105 118.378,180.095 118.378,180.700 118.287 C 181.305 118.195,180.810 118.120,179.600 118.120 C 178.390 118.120,177.895 118.195,178.500 118.287 M208.100 118.287 C 208.705 118.378,209.695 118.378,210.300 118.287 C 210.905 118.195,210.410 118.120,209.200 118.120 C 207.990 118.120,207.495 118.195,208.100 118.287 M169.500 121.082 C 169.995 121.178,170.805 121.178,171.300 121.082 C 171.795 120.987,171.390 120.909,170.400 120.909 C 169.410 120.909,169.005 120.987,169.500 121.082 M217.505 121.083 C 218.002 121.179,218.722 121.175,219.105 121.075 C 219.487 120.975,219.080 120.896,218.200 120.901 C 217.320 120.905,217.007 120.987,217.505 121.083 M182.528 130.800 C 182.528 132.230,182.601 132.815,182.689 132.100 C 182.778 131.385,182.778 130.215,182.689 129.500 C 182.601 128.785,182.528 129.370,182.528 130.800 M132.951 172.900 C 132.517 173.395,131.919 174.160,131.623 174.600 C 131.326 175.040,131.733 174.680,132.527 173.800 C 133.951 172.221,134.657 172.557,133.300 174.169 C 132.601 174.999,132.601 174.999,133.500 174.238 C 134.367 173.504,134.750 172.000,134.070 172.000 C 133.888 172.000,133.385 172.405,132.951 172.900 M131.375 176.668 C 130.759 177.476,130.459 178.011,130.709 177.856 C 131.221 177.540,132.953 175.200,132.675 175.200 C 132.576 175.200,131.991 175.861,131.375 176.668 M129.000 178.000 C 127.984 179.320,127.243 180.400,127.353 180.400 C 127.463 180.400,128.384 179.320,129.400 178.000 C 130.416 176.680,131.157 175.600,131.047 175.600 C 130.937 175.600,130.016 176.680,129.000 178.000 M149.483 178.739 C 149.089 178.895,150.206 179.017,151.966 179.011 C 153.726 179.005,154.859 178.878,154.483 178.728 C 153.588 178.372,150.396 178.379,149.483 178.739 M150.900 179.887 C 151.505 179.978,152.495 179.978,153.100 179.887 C 153.705 179.795,153.210 179.720,152.000 179.720 C 150.790 179.720,150.295 179.795,150.900 179.887 M146.600 180.400 C 145.581 180.838,146.632 180.838,148.000 180.400 C 148.804 180.143,148.843 180.077,148.200 180.068 C 147.760 180.062,147.040 180.211,146.600 180.400 M157.228 180.200 C 157.228 180.420,157.486 181.050,157.800 181.600 C 158.114 182.150,158.372 182.420,158.372 182.200 C 158.372 181.980,158.114 181.350,157.800 180.800 C 157.486 180.250,157.228 179.980,157.228 180.200 M127.944 181.100 C 126.675 182.632,126.219 183.342,126.681 183.065 C 127.193 182.758,128.969 180.400,128.689 180.400 C 128.598 180.400,128.263 180.715,127.944 181.100 M125.533 182.500 C 122.800 185.906,121.537 187.600,121.730 187.600 C 121.902 187.600,125.242 183.526,126.723 181.511 C 127.765 180.093,126.862 180.843,125.533 182.500 M156.986 184.066 C 156.977 185.421,157.095 186.139,157.257 185.726 C 157.639 184.758,157.660 182.713,157.294 182.140 C 157.132 181.887,156.993 182.754,156.986 184.066 M135.100 183.829 C 133.605 184.640,133.696 184.978,135.200 184.200 C 135.860 183.859,136.400 183.494,136.400 183.390 C 136.400 183.132,136.357 183.147,135.100 183.829 M135.900 184.629 C 134.405 185.440,134.496 185.778,136.000 185.000 C 136.660 184.659,137.200 184.294,137.200 184.190 C 137.200 183.932,137.157 183.947,135.900 184.629 M126.634 189.404 C 124.893 190.590,123.183 191.862,122.834 192.231 C 122.179 192.925,128.544 188.686,129.586 187.735 C 130.651 186.763,129.838 187.222,126.634 189.404 M121.634 189.158 C 120.955 190.014,120.400 190.838,120.400 190.988 C 120.400 191.233,121.205 190.315,122.758 188.300 C 123.055 187.915,123.201 187.600,123.083 187.600 C 122.964 187.600,122.312 188.301,121.634 189.158 M127.893 189.814 C 127.072 190.372,126.400 190.915,126.400 191.020 C 126.400 191.125,127.120 190.735,128.000 190.153 C 129.397 189.228,129.870 188.800,129.493 188.800 C 129.434 188.800,128.714 189.256,127.893 189.814 M153.387 192.700 C 152.548 193.965,149.870 197.070,147.437 199.600 C 145.003 202.130,143.721 203.570,144.587 202.800 C 148.338 199.467,152.562 194.696,154.593 191.500 C 155.933 189.391,154.902 190.418,153.387 192.700 M118.434 193.158 C 117.755 194.014,117.200 194.838,117.200 194.988 C 117.200 195.233,118.005 194.315,119.558 192.300 C 119.855 191.915,120.001 191.600,119.883 191.600 C 119.764 191.600,119.112 192.301,118.434 193.158 M123.200 193.235 L 121.800 194.448 123.295 193.524 C 124.117 193.016,124.792 192.465,124.795 192.300 C 124.802 191.864,124.738 191.902,123.200 193.235 M152.110 196.100 C 149.640 199.142,145.917 202.733,142.300 205.561 C 140.815 206.723,139.600 207.769,139.600 207.885 C 139.600 208.138,139.743 208.032,143.600 204.924 C 146.727 202.403,151.942 197.140,153.532 194.900 C 155.030 192.789,154.294 193.410,152.110 196.100 M118.385 195.629 L 117.000 196.858 118.500 195.781 C 119.826 194.830,120.257 194.400,119.885 194.400 C 119.822 194.400,119.147 194.953,118.385 195.629 M117.921 197.209 C 116.007 198.749,114.314 200.216,114.158 200.468 C 114.002 200.720,115.613 199.528,117.737 197.819 C 121.122 195.097,121.904 194.387,121.500 194.404 C 121.445 194.406,119.834 195.669,117.921 197.209 M115.798 196.402 C 114.969 197.319,115.222 197.841,116.283 197.403 C 116.786 197.195,116.846 197.050,116.483 196.915 C 116.086 196.767,116.075 196.592,116.432 196.161 C 117.152 195.294,116.616 195.498,115.798 196.402 M112.816 198.353 C 111.834 199.589,111.346 200.347,111.731 200.038 C 112.631 199.315,114.942 196.403,114.748 196.235 C 114.667 196.164,113.797 197.118,112.816 198.353 M108.585 203.316 C 107.273 204.700,104.805 207.120,103.100 208.693 C 101.395 210.267,100.000 211.667,100.000 211.805 C 100.000 212.198,108.671 203.978,110.026 202.300 C 111.802 200.101,111.288 200.464,108.585 203.316 M110.193 203.832 L 107.000 206.864 110.300 203.955 C 113.301 201.311,113.818 200.800,113.493 200.800 C 113.434 200.800,111.949 202.164,110.193 203.832 M141.185 205.232 L 139.800 206.463 141.088 205.613 C 142.230 204.859,143.093 204.000,142.708 204.000 C 142.632 204.000,141.947 204.554,141.185 205.232 M138.000 207.649 C 136.606 208.871,136.605 208.872,137.888 208.019 C 138.596 207.548,139.282 206.991,139.412 206.781 C 139.797 206.157,139.477 206.354,138.000 207.649 M105.775 208.500 L 104.600 209.800 105.900 208.625 C 107.112 207.530,107.384 207.200,107.075 207.200 C 107.006 207.200,106.421 207.785,105.775 208.500 M101.360 213.500 C 99.634 215.425,98.642 216.640,99.156 216.200 C 100.294 215.225,104.959 210.000,104.690 210.000 C 104.585 210.000,103.086 211.575,101.360 213.500 M133.000 212.000 C 132.340 212.437,131.980 212.792,132.200 212.788 C 132.601 212.782,134.776 211.223,134.400 211.212 C 134.290 211.208,133.660 211.563,133.000 212.000 M129.200 214.000 C 127.990 214.639,127.141 215.171,127.313 215.181 C 127.738 215.207,131.600 213.236,131.600 212.993 C 131.600 212.726,131.655 212.703,129.200 214.000 M180.500 213.065 C 180.225 213.176,180.000 213.468,180.000 213.713 C 180.000 214.027,180.142 214.018,180.475 213.685 C 180.841 213.319,181.138 213.370,181.775 213.905 C 182.598 214.598,182.598 214.598,181.838 213.700 C 181.419 213.205,181.059 212.814,181.038 212.832 C 181.017 212.849,180.775 212.954,180.500 213.065 M161.014 214.781 C 161.462 214.962,162.069 215.401,162.363 215.755 C 162.657 216.110,163.146 216.400,163.449 216.400 C 163.752 216.400,164.000 216.580,164.000 216.800 C 164.000 217.020,163.854 217.200,163.676 217.200 C 163.499 217.200,163.004 217.479,162.576 217.819 C 161.891 218.366,161.952 218.365,163.100 217.809 C 164.507 217.128,164.857 216.000,163.662 216.000 C 163.256 216.000,162.598 215.640,162.200 215.200 C 161.802 214.760,161.189 214.411,160.838 214.425 C 160.378 214.444,160.427 214.543,161.014 214.781 M180.156 215.478 C 180.182 216.252,180.345 216.613,180.567 216.391 C 180.790 216.170,180.772 215.667,180.523 215.113 C 180.140 214.263,180.114 214.288,180.156 215.478 M203.747 214.714 C 203.889 214.944,203.779 215.223,203.502 215.334 C 203.226 215.446,203.420 215.551,203.933 215.568 C 204.910 215.601,204.974 214.791,204.019 214.473 C 203.724 214.375,203.603 214.482,203.747 214.714 M105.787 215.640 C 105.633 216.127,105.730 216.674,106.019 216.940 C 106.400 217.292,106.448 217.278,106.223 216.881 C 106.061 216.595,106.054 216.055,106.207 215.681 C 106.458 215.068,106.519 215.080,106.815 215.800 C 107.128 216.561,107.145 216.556,107.172 215.700 C 107.208 214.553,106.147 214.507,105.787 215.640 M140.600 215.094 C 142.713 215.305,143.059 215.727,141.958 216.753 C 141.458 217.219,141.253 217.600,141.502 217.600 C 141.751 217.600,142.230 217.207,142.566 216.727 C 143.435 215.486,142.711 214.783,140.651 214.867 L 139.000 214.934 140.600 215.094 M185.700 215.076 C 186.085 215.176,186.400 215.417,186.400 215.609 C 186.400 215.802,186.085 216.144,185.700 216.368 C 185.315 216.592,185.203 216.781,185.451 216.788 C 186.103 216.805,186.914 215.708,186.611 215.218 C 186.469 214.988,186.048 214.821,185.676 214.846 C 185.067 214.888,185.069 214.911,185.700 215.076 M236.500 215.076 C 236.885 215.176,237.515 215.176,237.900 215.076 C 238.285 214.975,237.970 214.893,237.200 214.893 C 236.430 214.893,236.115 214.975,236.500 215.076 M157.852 215.550 C 157.401 215.727,157.980 215.835,159.312 215.822 C 160.527 215.810,161.314 215.668,161.060 215.506 C 160.485 215.139,158.841 215.162,157.852 215.550 M199.400 215.600 C 198.896 215.817,198.822 215.944,199.200 215.944 C 199.530 215.944,200.160 215.789,200.600 215.600 C 201.104 215.383,201.178 215.256,200.800 215.256 C 200.470 215.256,199.840 215.411,199.400 215.600 M214.821 215.579 C 214.441 215.819,214.801 215.870,215.863 215.728 C 216.758 215.608,217.914 215.719,218.442 215.977 C 219.351 216.420,219.360 216.412,218.624 215.822 C 217.768 215.137,215.726 215.006,214.821 215.579 M229.611 216.188 C 229.100 216.732,228.067 217.380,227.314 217.628 C 226.562 217.877,226.029 218.162,226.130 218.263 C 226.483 218.617,229.009 217.293,229.970 216.252 C 230.503 215.673,230.849 215.200,230.739 215.200 C 230.629 215.200,230.122 215.645,229.611 216.188 M230.849 216.252 C 230.344 217.361,230.472 217.850,231.156 217.427 C 231.381 217.288,231.464 216.910,231.340 216.587 C 231.216 216.264,231.314 216.000,231.557 216.000 C 231.801 216.000,232.000 215.820,232.000 215.600 C 232.000 214.828,231.323 215.211,230.849 216.252 M154.326 217.161 C 153.319 217.799,152.348 218.564,152.168 218.861 C 151.988 219.157,152.461 218.932,153.220 218.361 C 153.979 217.790,155.140 217.032,155.800 216.677 C 156.460 216.322,156.810 216.025,156.578 216.016 C 156.346 216.007,155.333 216.522,154.326 217.161 M182.400 216.353 C 182.400 216.548,182.040 216.801,181.600 216.916 C 181.160 217.031,180.800 217.434,180.800 217.812 C 180.800 218.408,180.892 218.426,181.498 217.949 C 183.182 216.625,183.600 216.000,182.800 216.000 C 182.580 216.000,182.400 216.159,182.400 216.353 M212.300 216.629 C 210.805 217.440,210.896 217.778,212.400 217.000 C 213.060 216.659,213.600 216.294,213.600 216.190 C 213.600 215.932,213.557 215.947,212.300 216.629 M215.800 216.424 C 214.695 216.683,214.735 216.709,216.300 216.753 C 218.295 216.808,218.477 217.333,216.800 218.200 C 216.140 218.541,215.600 218.922,215.600 219.047 C 215.600 219.436,218.127 217.818,218.292 217.323 C 218.531 216.608,217.145 216.108,215.800 216.424 M237.632 216.419 C 237.614 216.759,236.880 217.741,236.000 218.600 C 235.120 219.459,234.400 220.298,234.400 220.464 C 234.400 220.630,235.228 219.881,236.239 218.800 C 237.250 217.718,237.985 216.601,237.871 216.317 C 237.724 215.953,237.654 215.983,237.632 216.419 M92.111 219.564 C 88.704 223.258,86.303 226.000,86.477 226.000 C 86.557 226.000,88.565 223.930,90.940 221.400 C 93.314 218.870,95.109 216.815,94.929 216.833 C 94.748 216.852,93.480 218.081,92.111 219.564 M117.000 217.200 C 116.496 217.417,116.422 217.544,116.800 217.544 C 117.130 217.544,117.760 217.389,118.200 217.200 C 118.704 216.983,118.778 216.856,118.400 216.856 C 118.070 216.856,117.440 217.011,117.000 217.200 M195.604 217.395 C 195.052 218.060,195.325 219.200,196.036 219.200 C 196.365 219.200,196.351 219.023,195.990 218.587 C 195.569 218.081,195.613 217.875,196.241 217.400 C 196.658 217.084,196.797 216.820,196.549 216.813 C 196.301 216.806,195.876 217.068,195.604 217.395 M110.100 217.891 C 110.925 217.978,112.275 217.978,113.100 217.891 C 113.925 217.805,113.250 217.734,111.600 217.734 C 109.950 217.734,109.275 217.805,110.100 217.891 M118.400 218.000 C 117.576 218.264,117.541 218.326,118.200 218.354 C 118.640 218.373,119.270 218.213,119.600 218.000 C 120.301 217.547,119.814 217.547,118.400 218.000 M133.800 218.086 C 130.485 220.000,132.500 222.134,136.800 221.264 C 138.554 220.910,138.531 220.902,135.922 220.950 C 132.338 221.017,131.663 220.387,133.585 218.767 C 135.050 217.533,135.115 217.327,133.800 218.086 M137.107 217.890 C 137.826 217.979,138.906 217.977,139.507 217.886 C 140.108 217.795,139.520 217.722,138.200 217.724 C 136.880 217.726,136.388 217.801,137.107 217.890 M231.100 218.229 C 229.605 219.040,229.696 219.378,231.200 218.600 C 231.860 218.259,232.400 217.894,232.400 217.790 C 232.400 217.532,232.357 217.547,231.100 218.229 M248.800 218.006 C 248.373 218.286,248.603 218.335,249.600 218.175 L 251.000 217.952 250.000 218.562 C 248.878 219.246,249.225 219.429,250.426 218.786 C 250.852 218.558,251.200 218.198,251.200 217.986 C 251.200 217.485,249.574 217.498,248.800 218.006 M91.195 224.300 L 85.000 230.600 91.300 224.405 C 97.153 218.649,97.781 218.000,97.495 218.000 C 97.437 218.000,94.602 220.835,91.195 224.300 M236.975 219.300 L 235.800 220.600 237.100 219.425 C 237.815 218.779,238.400 218.194,238.400 218.125 C 238.400 217.816,238.070 218.088,236.975 219.300 M108.265 218.900 C 108.487 219.265,114.220 219.227,115.561 218.851 C 116.089 218.703,114.623 218.586,112.302 218.591 C 109.981 218.596,108.164 218.735,108.265 218.900 M160.300 219.246 C 158.185 220.824,159.203 221.779,162.400 221.217 L 164.200 220.900 161.900 220.850 C 159.268 220.793,159.201 220.712,160.700 219.393 C 162.043 218.212,161.804 218.124,160.300 219.246 M217.500 219.029 C 216.024 219.829,216.086 220.183,217.567 219.417 C 218.602 218.882,218.896 218.881,220.154 219.407 C 220.935 219.733,222.394 220.000,223.396 220.000 L 225.218 220.000 224.555 221.012 C 224.190 221.569,224.006 222.139,224.146 222.279 C 224.286 222.419,224.400 222.351,224.400 222.128 C 224.400 221.905,224.760 221.307,225.200 220.800 C 226.413 219.401,226.192 219.170,223.893 219.441 C 222.390 219.617,221.343 219.503,220.244 219.044 C 219.396 218.690,218.679 218.407,218.651 218.416 C 218.623 218.425,218.105 218.701,217.500 219.029 M221.907 218.690 C 222.626 218.779,223.706 218.777,224.307 218.686 C 224.908 218.595,224.320 218.522,223.000 218.524 C 221.680 218.526,221.188 218.601,221.907 218.690 M194.146 219.402 C 195.605 220.163,195.975 220.168,194.976 219.413 C 194.549 219.090,193.930 218.821,193.600 218.815 C 193.270 218.810,193.516 219.074,194.146 219.402 M144.600 219.600 C 144.096 219.817,144.022 219.944,144.400 219.944 C 144.730 219.944,145.360 219.789,145.800 219.600 C 146.304 219.383,146.378 219.256,146.000 219.256 C 145.670 219.256,145.040 219.411,144.600 219.600 M150.880 219.680 C 150.354 220.206,150.220 221.617,150.700 221.572 C 151.746 221.474,152.577 220.856,151.700 220.828 C 150.700 220.797,150.556 220.404,151.280 219.680 C 151.544 219.416,151.670 219.200,151.560 219.200 C 151.450 219.200,151.144 219.416,150.880 219.680 M170.200 219.600 C 169.696 219.817,169.622 219.944,170.000 219.944 C 170.330 219.944,170.960 219.789,171.400 219.600 C 171.904 219.383,171.978 219.256,171.600 219.256 C 171.270 219.256,170.640 219.411,170.200 219.600 M203.400 219.600 C 202.896 219.817,202.822 219.944,203.200 219.944 C 203.530 219.944,204.160 219.789,204.600 219.600 C 205.104 219.383,205.178 219.256,204.800 219.256 C 204.470 219.256,203.840 219.411,203.400 219.600 M209.426 220.084 C 208.656 221.183,209.150 221.750,210.432 221.238 C 211.390 220.855,211.391 220.850,210.500 220.825 C 209.500 220.797,209.356 220.404,210.080 219.680 C 210.344 219.416,210.444 219.200,210.303 219.200 C 210.161 219.200,209.767 219.598,209.426 220.084 M227.112 220.681 C 225.854 221.493,224.887 222.220,224.964 222.297 C 225.096 222.429,228.554 220.267,229.380 219.536 C 230.192 218.818,229.303 219.267,227.112 220.681 M243.000 219.600 C 242.496 219.817,242.422 219.944,242.800 219.944 C 243.130 219.944,243.760 219.789,244.200 219.600 C 244.704 219.383,244.778 219.256,244.400 219.256 C 244.070 219.256,243.440 219.411,243.000 219.600 M148.390 219.985 C 148.714 220.190,148.984 220.757,148.990 221.244 C 148.995 221.731,149.270 222.204,149.600 222.295 C 150.067 222.424,150.084 222.379,149.677 222.093 C 149.339 221.855,149.248 221.347,149.420 220.662 C 149.652 219.737,149.565 219.601,148.743 219.606 C 148.004 219.611,147.928 219.693,148.390 219.985 M207.060 219.906 C 207.312 220.068,207.582 220.636,207.660 221.169 C 207.737 221.701,208.030 222.183,208.310 222.239 C 208.590 222.294,208.636 222.249,208.410 222.137 C 208.184 222.025,208.000 221.408,208.000 220.767 C 208.000 219.920,207.808 219.602,207.300 219.606 C 206.850 219.610,206.764 219.717,207.060 219.906 M140.800 220.400 C 139.996 220.657,139.957 220.723,140.600 220.732 C 141.040 220.738,141.760 220.589,142.200 220.400 C 143.219 219.962,142.168 219.962,140.800 220.400 M166.200 220.400 C 165.181 220.838,166.232 220.838,167.600 220.400 C 168.404 220.143,168.443 220.077,167.800 220.068 C 167.360 220.062,166.640 220.211,166.200 220.400 M171.400 220.400 C 170.896 220.617,170.822 220.744,171.200 220.744 C 171.530 220.744,172.160 220.589,172.600 220.400 C 173.104 220.183,173.178 220.056,172.800 220.056 C 172.470 220.056,171.840 220.211,171.400 220.400 M184.600 220.400 C 184.096 220.617,184.022 220.744,184.400 220.744 C 184.730 220.744,185.360 220.589,185.800 220.400 C 186.304 220.183,186.378 220.056,186.000 220.056 C 185.670 220.056,185.040 220.211,184.600 220.400 M196.400 220.367 C 196.400 220.568,195.905 220.914,195.300 221.135 C 194.558 221.406,194.437 221.547,194.926 221.568 C 195.326 221.586,196.001 221.414,196.426 221.186 C 197.242 220.749,197.478 220.000,196.800 220.000 C 196.580 220.000,196.400 220.165,196.400 220.367 M199.169 220.526 C 199.346 220.705,200.101 220.676,200.846 220.463 L 202.200 220.074 200.524 220.137 C 199.602 220.172,198.993 220.346,199.169 220.526 M204.200 220.400 L 203.400 220.744 204.200 220.766 C 204.640 220.778,205.270 220.613,205.600 220.400 C 206.395 219.886,205.396 219.886,204.200 220.400 M239.800 220.400 C 239.296 220.617,239.222 220.744,239.600 220.744 C 239.930 220.744,240.560 220.589,241.000 220.400 C 241.504 220.183,241.578 220.056,241.200 220.056 C 240.870 220.056,240.240 220.211,239.800 220.400 M179.600 220.920 C 179.600 221.654,180.255 221.716,182.200 221.166 C 183.345 220.843,183.334 220.834,181.947 220.981 C 181.148 221.065,180.293 220.933,180.047 220.687 C 179.718 220.358,179.600 220.419,179.600 220.920 M132.125 221.700 C 132.545 222.085,133.274 222.385,133.744 222.366 C 134.438 222.338,134.387 222.267,133.474 221.993 C 132.855 221.808,132.127 221.508,131.856 221.328 C 131.584 221.147,131.706 221.315,132.125 221.700 M142.200 221.200 C 141.696 221.417,141.622 221.544,142.000 221.544 C 142.330 221.544,142.960 221.389,143.400 221.200 C 143.904 220.983,143.978 220.856,143.600 220.856 C 143.270 220.856,142.640 221.011,142.200 221.200 M167.600 221.200 C 166.796 221.457,166.757 221.523,167.400 221.532 C 167.840 221.538,168.560 221.389,169.000 221.200 C 170.019 220.762,168.968 220.762,167.600 221.200 M185.400 221.200 C 184.896 221.417,184.822 221.544,185.200 221.544 C 185.530 221.544,186.160 221.389,186.600 221.200 C 187.104 220.983,187.178 220.856,186.800 220.856 C 186.470 220.856,185.840 221.011,185.400 221.200 M201.000 221.200 L 200.200 221.544 201.000 221.566 C 201.440 221.578,202.070 221.413,202.400 221.200 C 203.195 220.686,202.196 220.686,201.000 221.200 M240.800 221.200 C 239.976 221.464,239.941 221.526,240.600 221.554 C 241.040 221.573,241.670 221.413,242.000 221.200 C 242.701 220.747,242.214 220.747,240.800 221.200 M157.949 221.735 C 158.539 222.450,162.799 222.625,164.800 222.016 C 165.350 221.849,164.347 221.800,162.571 221.908 C 160.357 222.043,159.038 221.942,158.371 221.587 C 157.484 221.114,157.447 221.127,157.949 221.735 M137.200 222.000 C 135.843 222.286,135.837 222.295,137.000 222.307 C 137.660 222.315,138.650 222.176,139.200 222.000 C 140.512 221.580,139.196 221.580,137.200 222.000 M151.600 222.000 C 150.776 222.264,150.741 222.326,151.400 222.354 C 151.840 222.373,152.470 222.213,152.800 222.000 C 153.501 221.547,153.014 221.547,151.600 222.000 M181.600 222.000 C 180.233 222.288,180.228 222.295,181.400 222.319 C 182.060 222.333,182.960 222.189,183.400 222.000 C 184.362 221.587,183.564 221.587,181.600 222.000 M210.200 222.000 C 209.093 222.282,209.077 222.309,210.000 222.347 C 210.550 222.369,211.270 222.213,211.600 222.000 C 212.281 221.560,211.929 221.560,210.200 222.000 M234.665 222.100 C 234.895 222.479,237.551 222.441,238.563 222.045 C 239.022 221.864,238.362 221.756,236.904 221.773 C 235.572 221.788,234.565 221.935,234.665 222.100 M84.834 227.753 L 83.869 229.000 85.013 227.912 C 85.643 227.314,86.077 226.753,85.979 226.665 C 85.880 226.577,85.365 227.067,84.834 227.753 M229.300 278.287 C 229.905 278.378,230.895 278.378,231.500 278.287 C 232.105 278.195,231.610 278.120,230.400 278.120 C 229.190 278.120,228.695 278.195,229.300 278.287 M130.880 321.280 C 130.298 321.862,130.258 322.665,130.795 322.997 C 131.023 323.138,131.089 322.976,130.951 322.616 C 130.819 322.271,130.933 321.722,131.204 321.395 C 131.795 320.683,131.560 320.600,130.880 321.280 " stroke="none" fill="#a49b94" fill-rule="evenodd"></path><path id="path3" d="M170.711 118.293 C 171.651 118.378,173.091 118.377,173.911 118.291 C 174.730 118.205,173.960 118.136,172.200 118.137 C 170.440 118.139,169.770 118.209,170.711 118.293 M214.711 118.293 C 215.651 118.378,217.091 118.377,217.911 118.291 C 218.730 118.205,217.960 118.136,216.200 118.137 C 214.440 118.139,213.770 118.209,214.711 118.293 M188.300 118.699 C 191.655 118.766,197.145 118.766,200.500 118.699 C 203.855 118.632,201.110 118.578,194.400 118.578 C 187.690 118.578,184.945 118.632,188.300 118.699 M173.633 120.947 C 173.725 121.028,174.520 121.204,175.400 121.338 C 176.515 121.507,176.758 121.471,176.200 121.219 C 175.432 120.871,173.290 120.644,173.633 120.947 M212.000 121.220 C 211.326 121.449,211.651 121.484,213.000 121.328 C 214.100 121.201,215.075 121.031,215.167 120.949 C 215.482 120.668,212.999 120.880,212.000 121.220 M205.178 124.700 L 203.800 126.200 205.300 124.822 C 206.696 123.538,206.984 123.200,206.678 123.200 C 206.612 123.200,205.937 123.875,205.178 124.700 M182.688 129.800 C 182.914 133.958,183.136 134.546,183.140 131.000 C 183.142 129.460,183.002 127.840,182.828 127.400 C 182.654 126.957,182.591 128.027,182.688 129.800 M182.493 135.200 C 182.493 135.970,182.575 136.285,182.676 135.900 C 182.776 135.515,182.776 134.885,182.676 134.500 C 182.575 134.115,182.493 134.430,182.493 135.200 M200.250 136.850 C 199.917 138.517,200.240 138.840,200.600 137.200 C 200.752 136.509,200.793 135.859,200.691 135.758 C 200.589 135.656,200.391 136.147,200.250 136.850 M199.422 141.422 C 199.272 142.225,199.228 142.962,199.326 143.060 C 199.424 143.157,199.627 142.581,199.778 141.778 C 199.928 140.975,199.972 140.238,199.874 140.140 C 199.776 140.043,199.573 140.619,199.422 141.422 M181.022 144.222 C 180.872 145.025,180.828 145.762,180.926 145.860 C 181.024 145.957,181.227 145.381,181.378 144.578 C 181.528 143.775,181.572 143.038,181.474 142.940 C 181.376 142.843,181.173 143.419,181.022 144.222 M197.850 150.450 C 197.517 152.117,197.840 152.440,198.200 150.800 C 198.352 150.109,198.393 149.459,198.291 149.358 C 198.189 149.256,197.991 149.747,197.850 150.450 M197.022 155.022 C 196.872 155.825,196.828 156.562,196.926 156.660 C 197.024 156.757,197.227 156.181,197.378 155.378 C 197.528 154.575,197.572 153.838,197.474 153.740 C 197.376 153.643,197.173 154.219,197.022 155.022 M178.622 157.822 C 178.472 158.625,178.428 159.362,178.526 159.460 C 178.624 159.557,178.827 158.981,178.978 158.178 C 179.128 157.375,179.172 156.638,179.074 156.540 C 178.976 156.443,178.773 157.019,178.622 157.822 M177.800 162.400 C 177.648 163.091,177.607 163.741,177.709 163.842 C 177.811 163.944,178.009 163.453,178.150 162.750 C 178.483 161.083,178.160 160.760,177.800 162.400 M194.622 168.622 C 194.472 169.425,194.428 170.162,194.526 170.260 C 194.624 170.357,194.827 169.781,194.978 168.978 C 195.128 168.175,195.172 167.438,195.074 167.340 C 194.976 167.243,194.773 167.819,194.622 168.622 M175.400 176.000 C 175.248 176.691,175.207 177.341,175.309 177.442 C 175.411 177.544,175.609 177.053,175.750 176.350 C 176.083 174.683,175.760 174.360,175.400 176.000 M192.250 182.050 C 191.917 183.717,192.240 184.040,192.600 182.400 C 192.752 181.709,192.793 181.059,192.691 180.958 C 192.589 180.856,192.391 181.347,192.250 182.050 M173.022 189.422 C 172.872 190.225,172.828 190.962,172.926 191.060 C 173.024 191.157,173.227 190.581,173.378 189.778 C 173.528 188.975,173.572 188.238,173.474 188.140 C 173.376 188.043,173.173 188.619,173.022 189.422 M172.252 193.700 C 171.598 196.142,171.128 196.025,181.095 195.908 C 189.459 195.809,190.195 195.743,190.254 195.092 C 190.299 194.597,190.262 194.567,190.130 194.992 C 189.969 195.512,188.663 195.600,181.126 195.600 L 172.311 195.600 172.574 194.200 C 172.865 192.649,172.631 192.286,172.252 193.700 M111.588 200.700 C 109.986 202.625,107.398 205.358,105.837 206.774 C 98.717 213.233,82.051 230.984,82.595 231.528 C 83.290 232.223,95.173 220.295,104.838 209.200 C 107.425 206.230,110.939 202.630,112.647 201.201 C 114.902 199.313,115.559 198.565,115.047 198.466 C 114.629 198.385,114.430 198.100,114.558 197.765 C 114.947 196.752,114.543 197.151,111.588 200.700 M180.400 213.920 C 180.400 214.961,181.461 216.366,182.096 216.167 C 183.265 215.800,183.732 216.392,182.952 217.253 C 182.422 217.839,182.731 217.757,184.226 216.913 L 186.200 215.800 184.600 215.676 C 183.533 215.593,182.695 215.226,182.084 214.576 C 181.174 213.607,180.400 213.306,180.400 213.920 M140.984 215.838 C 141.863 216.481,142.400 216.560,142.400 216.047 C 142.400 215.852,141.908 215.599,141.308 215.484 C 140.286 215.289,140.265 215.312,140.984 215.838 M237.600 215.739 C 238.150 216.029,238.685 216.196,238.788 216.111 C 239.070 215.880,237.890 215.212,237.200 215.212 C 236.869 215.212,237.049 215.448,237.600 215.739 M161.776 216.574 C 161.794 217.189,161.203 217.703,159.460 218.587 C 158.172 219.239,157.317 219.839,157.560 219.920 C 157.802 220.001,158.000 220.322,158.000 220.633 C 158.000 220.945,158.180 221.200,158.400 221.200 C 158.620 221.200,158.800 220.941,158.800 220.625 C 158.800 220.309,159.876 219.364,161.192 218.525 C 163.905 216.795,163.930 216.756,162.673 216.174 C 161.870 215.801,161.755 215.852,161.776 216.574 M95.041 219.093 C 93.617 220.574,92.326 221.659,92.171 221.505 C 91.855 221.188,96.596 216.400,97.225 216.400 C 97.448 216.400,96.465 217.612,95.041 219.093 M135.269 216.749 C 134.713 217.101,136.841 217.602,138.800 217.580 C 139.715 217.570,139.685 217.519,138.454 216.984 C 136.934 216.324,136.043 216.258,135.269 216.749 M218.357 217.867 C 217.953 218.365,217.942 218.468,218.318 218.242 C 218.606 218.069,219.137 218.168,219.518 218.466 C 220.145 218.957,220.152 218.935,219.613 218.200 C 219.290 217.760,219.001 217.351,218.970 217.290 C 218.939 217.230,218.663 217.490,218.357 217.867 M227.800 218.000 C 227.140 218.408,226.240 218.776,225.800 218.817 C 225.117 218.882,225.103 218.920,225.700 219.076 C 226.473 219.278,226.618 219.818,226.002 220.199 C 225.783 220.334,225.412 220.803,225.178 221.242 C 224.828 221.894,227.849 220.198,230.788 218.092 C 231.043 217.909,229.902 217.206,229.400 217.235 C 229.180 217.248,228.460 217.592,227.800 218.000 M193.600 218.200 L 192.600 218.772 193.887 218.786 C 194.871 218.797,195.120 218.658,194.945 218.200 C 194.818 217.870,194.689 217.606,194.657 217.614 C 194.626 217.622,194.150 217.886,193.600 218.200 M109.000 218.390 C 109.764 218.728,112.314 218.957,111.967 218.656 C 111.875 218.576,110.990 218.404,110.000 218.273 C 108.798 218.114,108.466 218.153,109.000 218.390 M150.348 218.533 C 149.528 218.897,149.405 219.102,149.790 219.462 C 150.167 219.814,150.557 219.699,151.442 218.976 C 152.689 217.956,152.143 217.735,150.348 218.533 M208.800 218.625 C 208.030 218.916,207.715 219.165,208.100 219.177 C 208.877 219.202,208.965 219.520,208.431 220.364 C 208.047 220.971,208.282 222.000,208.805 222.000 C 208.981 222.000,209.022 221.607,208.897 221.127 C 208.725 220.470,209.002 219.977,210.019 219.127 C 211.459 217.926,211.071 217.766,208.800 218.625 M149.632 221.100 C 149.610 221.705,149.830 221.998,150.300 221.994 C 150.732 221.990,150.831 221.875,150.560 221.694 C 150.318 221.532,150.017 221.130,149.892 220.800 C 149.739 220.399,149.653 220.499,149.632 221.100 M178.846 221.100 C 178.808 221.838,178.997 221.990,179.900 221.946 C 180.806 221.901,180.845 221.861,180.125 221.721 C 179.643 221.627,179.169 221.247,179.071 220.875 C 178.945 220.397,178.879 220.462,178.846 221.100 M197.141 221.031 C 196.794 221.378,195.765 221.761,194.855 221.883 C 193.090 222.120,192.564 222.800,194.147 222.800 C 195.437 222.800,199.237 221.184,198.969 220.750 C 198.636 220.211,197.838 220.334,197.141 221.031 M234.875 221.095 C 234.949 221.478,235.367 221.835,235.805 221.888 C 236.242 221.942,236.375 221.884,236.100 221.760 C 235.825 221.635,235.600 221.278,235.600 220.967 C 235.600 220.655,235.407 220.400,235.171 220.400 C 234.935 220.400,234.802 220.713,234.875 221.095 M134.705 221.883 C 135.202 221.979,135.922 221.975,136.305 221.875 C 136.687 221.775,136.280 221.696,135.400 221.701 C 134.520 221.705,134.207 221.787,134.705 221.883 M160.100 221.876 C 160.485 221.976,161.115 221.976,161.500 221.876 C 161.885 221.775,161.570 221.693,160.800 221.693 C 160.030 221.693,159.715 221.775,160.100 221.876 M175.073 227.500 C 183.892 227.614,183.947 227.621,184.119 228.508 C 184.265 229.263,184.299 229.232,184.346 228.300 L 184.400 227.200 175.300 227.292 L 166.200 227.384 175.073 227.500 M165.022 234.622 C 164.872 235.425,164.828 236.162,164.926 236.260 C 165.024 236.357,165.227 235.781,165.378 234.978 C 165.528 234.175,165.572 233.438,165.474 233.340 C 165.376 233.243,165.173 233.819,165.022 234.622 M164.200 239.200 C 164.048 239.891,164.007 240.541,164.109 240.642 C 164.211 240.744,164.409 240.253,164.550 239.550 C 164.883 237.883,164.560 237.560,164.200 239.200 M181.850 240.850 C 181.517 242.517,181.840 242.840,182.200 241.200 C 182.352 240.509,182.393 239.859,182.291 239.758 C 182.189 239.656,181.991 240.147,181.850 240.850 M161.800 252.800 C 161.648 253.491,161.607 254.141,161.709 254.242 C 161.811 254.344,162.009 253.853,162.150 253.150 C 162.483 251.483,162.160 251.160,161.800 252.800 M179.450 254.450 C 179.117 256.117,179.440 256.440,179.800 254.800 C 179.952 254.109,179.993 253.459,179.891 253.358 C 179.789 253.256,179.591 253.747,179.450 254.450 M228.900 255.076 C 229.285 255.176,229.915 255.176,230.300 255.076 C 230.685 254.975,230.370 254.893,229.600 254.893 C 228.830 254.893,228.515 254.975,228.900 255.076 M236.800 256.925 C 236.800 256.994,237.385 257.579,238.100 258.225 L 239.400 259.400 238.225 258.100 C 237.130 256.888,236.800 256.616,236.800 256.925 M178.650 258.850 C 178.317 260.517,178.640 260.840,179.000 259.200 C 179.152 258.509,179.193 257.859,179.091 257.758 C 178.989 257.656,178.791 258.147,178.650 258.850 M177.829 262.629 C 177.681 263.215,177.638 263.772,177.732 263.866 C 177.827 263.960,178.024 263.558,178.171 262.971 C 178.319 262.385,178.362 261.828,178.268 261.734 C 178.173 261.640,177.976 262.042,177.829 262.629 M217.724 266.200 C 217.726 267.520,217.801 268.012,217.890 267.293 C 217.979 266.574,217.977 265.494,217.886 264.893 C 217.795 264.292,217.722 264.880,217.724 266.200 M240.446 269.267 C 240.421 269.634,240.296 270.264,240.170 270.667 C 239.952 271.362,239.963 271.363,240.397 270.687 C 240.648 270.296,240.773 269.666,240.673 269.287 C 240.511 268.668,240.488 268.666,240.446 269.267 M239.401 272.396 C 239.252 272.867,238.567 273.916,237.879 274.726 C 236.707 276.109,236.699 276.138,237.753 275.200 C 238.925 274.156,240.199 272.066,239.866 271.733 C 239.760 271.627,239.551 271.925,239.401 272.396 M157.829 273.829 C 157.681 274.415,157.638 274.972,157.732 275.066 C 157.827 275.160,158.024 274.758,158.171 274.171 C 158.319 273.585,158.362 273.028,158.268 272.934 C 158.173 272.840,157.976 273.242,157.829 273.829 M229.300 277.887 C 229.905 277.978,230.895 277.978,231.500 277.887 C 232.105 277.795,231.610 277.720,230.400 277.720 C 229.190 277.720,228.695 277.795,229.300 277.887 M155.429 283.429 C 155.281 284.015,155.238 284.572,155.332 284.666 C 155.427 284.760,155.624 284.358,155.771 283.771 C 155.919 283.185,155.962 282.628,155.868 282.534 C 155.773 282.440,155.576 282.842,155.429 283.429 M163.785 300.500 C 163.168 301.435,162.920 301.989,163.232 301.731 C 163.833 301.234,165.364 298.800,165.076 298.800 C 164.983 298.800,164.402 299.565,163.785 300.500 M147.800 303.200 C 147.459 303.860,147.269 304.400,147.379 304.400 C 147.489 304.400,147.859 303.860,148.200 303.200 C 148.541 302.540,148.731 302.000,148.621 302.000 C 148.511 302.000,148.141 302.540,147.800 303.200 M157.391 308.100 L 154.200 311.400 157.500 308.209 C 159.315 306.455,160.800 304.970,160.800 304.909 C 160.800 304.618,160.354 305.035,157.391 308.100 M139.188 315.100 L 136.600 317.800 139.300 315.212 C 141.808 312.807,142.183 312.400,141.888 312.400 C 141.827 312.400,140.612 313.615,139.188 315.100 M149.139 314.738 C 147.676 315.762,146.146 316.829,145.739 317.108 C 145.120 317.534,145.162 317.540,146.000 317.147 C 147.362 316.509,151.492 313.699,151.799 313.202 C 152.147 312.639,152.108 312.661,149.139 314.738 M134.800 318.849 C 133.406 320.071,133.405 320.072,134.688 319.219 C 135.396 318.748,136.082 318.191,136.212 317.981 C 136.597 317.357,136.277 317.554,134.800 318.849 M131.463 323.700 C 131.705 324.094,132.865 324.073,133.511 323.663 C 133.826 323.464,133.496 323.351,132.651 323.370 C 131.897 323.386,131.362 323.535,131.463 323.700 " stroke="none" fill="#8c7a6e" fill-rule="evenodd"></path><path id="path4" d="M168.305 117.883 C 168.802 117.979,169.522 117.975,169.905 117.875 C 170.287 117.775,169.880 117.696,169.000 117.701 C 168.120 117.705,167.807 117.787,168.305 117.883 M175.700 118.276 C 176.085 118.376,176.715 118.376,177.100 118.276 C 177.485 118.175,177.170 118.093,176.400 118.093 C 175.630 118.093,175.315 118.175,175.700 118.276 M131.893 174.680 C 130.869 176.010,130.144 177.211,130.282 177.349 C 130.420 177.487,130.339 177.600,130.101 177.600 C 129.863 177.600,128.885 178.635,127.929 179.900 C 126.973 181.165,125.238 183.407,124.073 184.882 C 122.908 186.358,121.920 187.680,121.877 187.822 C 121.835 187.963,121.040 188.907,120.112 189.918 C 119.183 190.929,118.481 191.815,118.552 191.886 C 118.623 191.956,118.109 192.621,117.409 193.362 C 115.625 195.255,113.272 198.314,114.117 197.643 C 114.731 197.156,114.787 197.168,114.566 197.743 C 114.389 198.206,114.534 198.403,115.057 198.410 C 115.588 198.417,115.116 199.056,113.400 200.652 L 111.000 202.885 113.400 200.900 C 117.393 197.600,120.091 195.465,122.300 193.859 C 123.455 193.019,124.400 192.167,124.400 191.966 C 124.400 191.765,124.535 191.643,124.700 191.695 C 125.039 191.801,135.666 184.877,136.045 184.303 C 136.179 184.099,136.412 183.966,136.562 184.007 C 136.994 184.127,139.200 183.133,139.200 182.818 C 139.200 182.661,139.425 182.526,139.700 182.516 C 139.975 182.507,141.640 182.006,143.400 181.404 C 145.160 180.802,147.410 180.178,148.400 180.017 C 149.806 179.789,150.036 179.654,149.449 179.400 C 148.191 178.856,138.400 181.895,138.400 182.829 C 138.400 183.033,138.265 183.179,138.100 183.153 C 137.256 183.019,136.472 183.269,135.760 183.900 C 135.325 184.285,134.720 184.655,134.416 184.723 C 133.691 184.884,126.164 190.074,120.565 194.274 C 116.660 197.203,115.200 198.057,115.200 197.415 C 115.200 197.313,116.955 195.037,119.100 192.357 C 121.245 189.677,122.939 187.391,122.864 187.278 C 122.789 187.165,122.999 186.921,123.329 186.736 C 123.881 186.427,128.266 180.856,128.316 180.400 C 128.328 180.290,129.067 179.410,129.959 178.445 C 130.850 177.479,131.483 176.534,131.366 176.345 C 131.249 176.155,131.322 176.000,131.529 176.000 C 132.089 176.000,134.083 173.248,133.906 172.719 C 133.822 172.467,132.916 173.349,131.893 174.680 M150.400 179.200 C 150.400 179.564,152.838 179.821,155.109 179.697 C 155.609 179.669,155.920 179.805,155.801 179.999 C 155.681 180.192,155.828 180.497,156.127 180.675 C 156.426 180.854,156.855 181.338,157.080 181.751 C 157.328 182.206,157.592 182.337,157.748 182.084 C 157.891 181.853,157.744 181.401,157.423 181.080 C 157.101 180.758,156.959 180.374,157.107 180.226 C 157.255 180.079,157.059 180.079,156.671 180.228 C 156.191 180.412,156.004 180.324,156.084 179.949 C 156.161 179.586,155.828 179.405,155.100 179.416 C 154.495 179.424,154.000 179.289,154.000 179.116 C 154.000 178.942,153.190 178.800,152.200 178.800 C 151.210 178.800,150.400 178.980,150.400 179.200 M157.867 182.667 C 157.457 183.077,157.551 184.722,158.000 185.000 C 158.238 185.147,158.400 184.671,158.400 183.824 C 158.400 182.362,158.328 182.205,157.867 182.667 M156.995 186.423 C 155.096 195.070,138.550 209.776,124.600 215.215 C 123.280 215.729,122.110 216.251,122.000 216.375 C 121.798 216.603,121.618 216.632,119.776 216.740 C 119.140 216.777,118.856 216.967,119.026 217.243 C 119.212 217.543,118.995 217.601,118.350 217.424 C 117.661 217.234,117.565 217.267,118.000 217.545 C 118.701 217.992,120.800 217.681,120.800 217.130 C 120.800 216.922,120.963 216.854,121.163 216.977 C 121.639 217.271,126.000 215.598,126.000 215.121 C 126.000 214.918,126.167 214.856,126.370 214.981 C 126.854 215.280,128.800 214.389,128.800 213.869 C 128.800 213.648,128.912 213.579,129.050 213.716 C 129.538 214.204,138.800 208.738,138.800 207.961 C 138.800 207.763,138.948 207.645,139.128 207.700 C 141.827 208.523,158.820 189.097,157.404 186.807 C 157.289 186.621,157.421 186.385,157.698 186.284 C 158.077 186.145,158.088 185.980,157.740 185.610 C 157.386 185.233,157.215 185.420,156.995 186.423 M110.004 203.396 C 109.732 203.723,109.370 203.905,109.200 203.800 C 108.815 203.562,107.866 204.668,107.745 205.495 C 107.695 205.838,108.349 205.431,109.227 204.573 C 110.092 203.729,110.800 202.984,110.800 202.919 C 110.800 202.640,110.464 202.841,110.004 203.396 M104.378 207.900 L 103.000 209.400 104.500 208.022 C 105.896 206.738,106.184 206.400,105.878 206.400 C 105.812 206.400,105.137 207.075,104.378 207.900 M103.375 210.900 L 102.200 212.200 103.500 211.025 C 104.712 209.930,104.984 209.600,104.675 209.600 C 104.606 209.600,104.021 210.185,103.375 210.900 M97.387 214.500 L 95.000 217.000 97.500 214.613 C 99.822 212.395,100.183 212.000,99.887 212.000 C 99.826 212.000,98.701 213.125,97.387 214.500 M99.978 214.700 L 98.600 216.200 100.100 214.822 C 101.496 213.538,101.784 213.200,101.478 213.200 C 101.412 213.200,100.737 213.875,99.978 214.700 M156.734 215.167 C 155.708 215.568,154.358 216.254,153.734 216.691 C 153.110 217.128,152.330 217.587,152.000 217.711 C 151.545 217.882,151.533 217.944,151.949 217.968 C 152.395 217.994,152.404 218.131,151.999 218.700 C 151.725 219.085,151.968 218.901,152.539 218.291 C 153.110 217.680,153.628 217.197,153.689 217.216 C 153.750 217.235,154.610 216.880,155.600 216.428 C 156.590 215.976,158.075 215.491,158.900 215.352 C 159.725 215.212,160.400 214.941,160.400 214.749 C 160.400 214.190,158.751 214.378,156.734 215.167 M198.256 215.197 C 196.012 216.073,194.795 217.051,194.812 217.962 C 194.823 218.508,194.883 218.499,195.231 217.901 C 195.864 216.815,199.162 215.479,201.694 215.283 C 202.956 215.185,203.890 214.946,203.771 214.752 C 203.399 214.150,200.294 214.401,198.256 215.197 M161.000 215.200 C 160.864 215.420,161.017 215.600,161.339 215.600 C 161.671 215.600,161.879 215.904,161.820 216.300 C 161.762 216.685,161.793 216.773,161.888 216.495 C 161.983 216.217,162.272 216.113,162.530 216.264 C 162.789 216.414,162.657 216.147,162.238 215.669 C 161.365 214.673,161.333 214.661,161.000 215.200 M180.570 215.701 C 180.593 216.363,180.194 216.714,178.846 217.218 C 177.557 217.699,177.270 217.941,177.762 218.130 C 178.406 218.377,178.717 218.285,180.695 217.262 C 181.872 216.654,182.268 216.679,182.537 217.380 C 182.673 217.734,182.567 217.885,182.264 217.769 C 181.472 217.465,178.394 220.332,178.440 221.331 C 178.477 222.132,178.505 222.121,178.800 221.200 C 179.071 220.352,179.130 220.322,179.185 221.000 C 179.247 221.752,179.272 221.747,179.606 220.917 C 179.802 220.431,180.960 219.370,182.181 218.560 C 184.466 217.043,184.893 216.636,183.734 217.081 C 183.290 217.251,183.164 217.182,183.355 216.873 C 183.542 216.570,183.426 216.492,183.021 216.647 C 182.679 216.778,182.400 216.692,182.400 216.455 C 182.400 216.219,182.130 216.129,181.800 216.255 C 181.426 216.399,181.200 216.252,181.200 215.866 C 181.200 215.526,181.052 215.156,180.870 215.043 C 180.689 214.931,180.554 215.227,180.570 215.701 M106.157 215.769 C 105.882 216.484,106.715 218.100,107.203 217.798 C 107.652 217.521,107.261 216.400,106.714 216.400 C 106.494 216.400,106.418 216.130,106.545 215.800 C 106.671 215.470,106.685 215.200,106.575 215.200 C 106.465 215.200,106.277 215.456,106.157 215.769 M137.127 215.750 C 136.071 216.210,136.091 216.229,138.384 216.962 C 140.724 217.710,143.872 217.051,141.785 216.250 C 140.841 215.887,140.690 215.937,140.918 216.531 C 141.073 216.935,140.781 217.006,139.694 216.829 C 137.353 216.449,137.774 215.800,140.362 215.800 C 141.661 215.800,142.652 215.684,142.564 215.541 C 142.292 215.102,138.260 215.256,137.127 215.750 M184.309 215.493 C 185.418 215.593,185.923 215.801,185.747 216.085 C 185.585 216.348,185.661 216.410,185.938 216.238 C 186.934 215.623,186.311 215.203,184.500 215.270 L 182.600 215.340 184.309 215.493 M230.047 216.150 C 229.338 216.905,229.273 217.142,229.729 217.317 C 230.082 217.453,230.478 217.148,230.765 216.517 C 231.392 215.142,231.123 215.005,230.047 216.150 M233.782 216.142 C 231.340 217.198,230.800 217.540,230.800 218.029 C 230.800 218.240,231.875 217.869,233.189 217.206 C 237.597 214.980,239.206 215.741,236.317 218.685 C 235.391 219.628,234.851 220.400,235.117 220.400 C 235.383 220.400,235.600 220.651,235.600 220.957 C 235.600 221.534,236.429 222.000,237.456 222.000 C 237.781 222.000,237.936 221.820,237.800 221.600 C 237.664 221.380,237.203 221.200,236.776 221.200 C 235.695 221.200,235.808 220.319,237.038 219.170 C 240.534 215.904,238.566 214.074,233.782 216.142 M214.600 215.959 C 212.895 216.555,210.230 217.983,210.800 217.996 C 211.160 218.004,210.880 218.419,210.100 219.033 C 209.385 219.597,208.805 220.270,208.812 220.529 C 208.819 220.788,208.997 220.703,209.209 220.341 C 210.455 218.208,216.482 215.587,217.847 216.585 C 218.718 217.222,218.323 217.819,216.373 218.814 C 215.508 219.255,214.800 219.803,214.800 220.032 C 214.800 220.260,214.657 220.359,214.482 220.250 C 214.306 220.142,213.116 220.399,211.835 220.822 C 210.555 221.244,209.378 221.510,209.220 221.412 C 209.062 221.315,208.933 221.469,208.933 221.755 C 208.933 222.572,212.113 221.766,215.600 220.064 C 218.661 218.570,219.620 218.319,220.032 218.900 C 220.488 219.544,223.267 219.706,224.924 219.187 C 226.966 218.546,227.897 217.856,225.976 218.407 C 224.003 218.973,221.077 218.890,220.193 218.244 C 219.775 217.939,219.156 217.793,218.817 217.919 C 218.272 218.123,218.268 218.066,218.785 217.432 C 219.893 216.071,217.096 215.087,214.600 215.959 M95.602 217.598 C 94.896 218.258,94.188 218.716,94.027 218.617 C 93.867 218.518,92.761 219.461,91.568 220.713 C 90.376 221.965,89.965 222.482,90.656 221.862 C 91.568 221.044,91.969 220.881,92.121 221.267 C 92.257 221.616,93.245 220.868,94.980 219.100 C 97.604 216.427,98.076 215.288,95.602 217.598 M94.811 220.196 L 91.422 223.800 94.993 220.315 C 96.957 218.399,98.482 216.777,98.382 216.711 C 98.282 216.645,96.675 218.214,94.811 220.196 M132.664 218.052 C 130.665 219.699,131.147 222.000,133.489 222.000 C 134.391 222.000,134.034 221.295,133.000 221.036 C 130.660 220.449,133.015 217.600,135.840 217.600 C 137.190 217.600,136.998 217.390,135.364 217.080 C 134.375 216.892,133.834 217.087,132.664 218.052 M107.800 218.000 C 107.512 218.466,107.263 218.427,111.600 218.598 C 114.172 218.700,114.757 218.635,114.000 218.330 C 113.450 218.109,111.965 218.017,110.700 218.126 C 109.376 218.240,108.495 218.171,108.623 217.962 C 108.747 217.763,108.667 217.600,108.447 217.600 C 108.227 217.600,107.936 217.780,107.800 218.000 M115.000 218.000 C 116.123 218.483,117.698 218.483,117.400 218.000 C 117.264 217.780,116.488 217.613,115.676 217.628 C 114.487 217.651,114.355 217.723,115.000 218.000 M246.800 218.842 C 245.370 219.271,243.345 219.813,242.300 220.045 C 241.255 220.277,240.400 220.646,240.400 220.865 C 240.400 221.334,241.695 221.098,246.285 219.792 C 249.931 218.754,251.595 218.011,250.200 218.043 C 249.760 218.053,248.230 218.413,246.800 218.842 M147.400 219.088 C 146.300 219.421,145.351 219.820,145.290 219.976 C 145.230 220.131,144.600 220.179,143.890 220.083 C 142.850 219.941,142.694 220.007,143.087 220.420 C 143.607 220.969,148.000 220.212,148.000 219.574 C 148.000 218.833,149.601 219.793,149.949 220.742 C 150.273 221.625,150.342 221.664,150.368 220.980 C 150.386 220.529,150.625 219.908,150.900 219.599 C 151.314 219.135,151.297 219.114,150.800 219.479 C 150.353 219.807,150.075 219.784,149.710 219.387 C 149.318 218.962,149.358 218.819,149.910 218.674 C 150.376 218.551,150.405 218.491,150.000 218.488 C 149.670 218.485,148.500 218.755,147.400 219.088 M175.000 218.800 C 175.136 219.020,175.517 219.200,175.847 219.200 C 176.177 219.200,176.336 219.020,176.200 218.800 C 176.064 218.580,175.683 218.400,175.353 218.400 C 175.023 218.400,174.864 218.580,175.000 218.800 M191.129 218.900 C 190.838 219.175,190.240 219.422,189.800 219.449 C 189.052 219.495,182.528 221.044,181.200 221.491 C 180.743 221.645,180.724 221.739,181.121 221.887 C 181.802 222.140,189.200 220.405,189.200 219.992 C 189.200 219.818,189.539 219.763,189.952 219.872 C 190.366 219.980,190.946 219.810,191.240 219.495 C 191.535 219.179,192.125 219.012,192.551 219.124 C 193.069 219.259,193.230 219.173,193.039 218.863 C 192.664 218.257,191.791 218.274,191.129 218.900 M94.000 218.939 C 94.000 219.247,92.484 220.800,92.183 220.800 C 92.006 220.800,92.283 220.350,92.800 219.800 C 93.694 218.849,94.000 218.629,94.000 218.939 M157.600 219.198 C 157.270 219.411,155.740 219.974,154.200 220.449 C 152.660 220.925,151.040 221.575,150.600 221.894 L 149.800 222.474 150.600 222.256 C 151.040 222.136,151.940 221.911,152.600 221.756 C 153.260 221.601,154.572 221.146,155.515 220.745 C 157.015 220.107,157.260 220.091,157.463 220.619 C 157.818 221.544,159.195 222.165,159.723 221.637 C 160.039 221.321,160.014 221.200,159.633 221.200 C 159.304 221.200,159.185 220.901,159.316 220.399 C 159.431 219.959,159.362 219.700,159.163 219.823 C 158.963 219.946,158.800 220.307,158.800 220.624 C 158.800 220.941,158.620 221.200,158.400 221.200 C 158.180 221.200,158.000 220.930,158.000 220.600 C 158.000 220.270,157.786 220.000,157.524 220.000 C 157.261 220.000,157.396 219.736,157.824 219.413 C 158.692 218.756,158.530 218.600,157.600 219.198 M172.894 219.083 C 171.822 219.289,172.095 220.000,173.247 220.000 C 173.756 220.000,173.942 219.830,173.758 219.532 C 173.562 219.215,173.689 219.149,174.155 219.327 C 174.563 219.484,174.742 219.430,174.597 219.195 C 174.463 218.978,174.228 218.825,174.076 218.854 C 173.924 218.884,173.392 218.987,172.894 219.083 M194.976 219.413 C 195.404 219.736,196.079 220.000,196.476 220.000 C 197.397 220.000,197.410 220.638,196.500 221.168 C 196.115 221.392,195.966 221.581,196.169 221.588 C 196.371 221.595,196.859 221.308,197.254 220.951 C 197.680 220.565,198.255 220.412,198.674 220.573 C 199.275 220.804,199.291 220.898,198.789 221.215 C 198.342 221.498,198.465 221.589,199.300 221.594 C 199.905 221.597,200.400 221.518,200.400 221.417 C 200.400 220.954,196.723 219.144,196.195 219.347 C 195.868 219.472,195.600 219.401,195.600 219.187 C 195.600 218.974,195.285 218.806,194.900 218.813 C 194.267 218.824,194.274 218.881,194.976 219.413 M204.500 219.549 C 203.125 219.905,202.000 220.332,202.000 220.498 C 202.000 220.900,202.931 220.880,204.074 220.456 C 206.369 219.603,207.999 219.531,208.012 220.282 C 208.024 220.966,208.045 220.965,208.449 220.270 C 208.682 219.868,208.812 219.486,208.737 219.420 C 208.200 218.948,206.637 218.995,204.500 219.549 M168.600 220.400 C 168.736 220.620,169.297 220.800,169.847 220.800 C 170.412 220.800,170.740 220.626,170.600 220.400 C 170.464 220.180,169.903 220.000,169.353 220.000 C 168.788 220.000,168.460 220.174,168.600 220.400 M167.000 220.800 C 167.136 221.020,167.517 221.200,167.847 221.200 C 168.177 221.200,168.336 221.020,168.200 220.800 C 168.064 220.580,167.683 220.400,167.353 220.400 C 167.023 220.400,166.864 220.580,167.000 220.800 M138.800 221.200 C 139.130 221.413,139.940 221.588,140.600 221.588 C 141.521 221.588,141.660 221.497,141.200 221.200 C 140.870 220.987,140.060 220.812,139.400 220.812 C 138.479 220.812,138.340 220.903,138.800 221.200 M164.400 221.200 C 165.193 221.713,166.917 221.713,166.600 221.200 C 166.464 220.980,165.778 220.803,165.076 220.806 C 164.105 220.811,163.943 220.905,164.400 221.200 M224.664 221.377 C 224.508 221.783,224.475 222.209,224.591 222.324 C 224.706 222.439,224.800 222.313,224.800 222.043 C 224.800 221.773,224.968 221.656,225.172 221.783 C 225.377 221.909,225.675 221.802,225.834 221.545 C 226.007 221.266,225.951 221.183,225.696 221.341 C 225.461 221.486,225.196 221.388,225.108 221.123 C 225.011 220.832,224.834 220.933,224.664 221.377 M238.200 221.200 C 238.336 221.420,238.797 221.600,239.224 221.600 C 239.651 221.600,240.000 221.420,240.000 221.200 C 240.000 220.980,239.539 220.800,238.976 220.800 C 238.396 220.800,238.060 220.973,238.200 221.200 M136.400 221.600 C 137.190 222.111,138.516 222.111,138.200 221.600 C 138.064 221.380,137.468 221.203,136.876 221.206 C 136.034 221.211,135.931 221.297,136.400 221.600 M161.600 221.600 C 162.393 222.113,164.117 222.113,163.800 221.600 C 163.664 221.380,162.978 221.203,162.276 221.206 C 161.305 221.211,161.143 221.305,161.600 221.600 M192.901 222.400 C 192.990 222.730,193.499 223.033,194.031 223.074 C 194.795 223.132,194.831 223.101,194.200 222.928 C 193.760 222.807,193.251 222.503,193.070 222.254 C 192.851 221.954,192.794 222.004,192.901 222.400 M87.381 225.300 L 85.800 227.000 87.500 225.419 C 89.081 223.948,89.384 223.600,89.081 223.600 C 89.016 223.600,88.251 224.365,87.381 225.300 M86.000 228.864 C 84.570 230.200,83.040 231.441,82.600 231.621 C 82.029 231.855,81.980 231.957,82.428 231.975 C 82.773 231.989,84.393 230.749,86.028 229.219 C 87.662 227.689,88.910 226.437,88.800 226.437 C 88.690 226.436,87.430 227.529,86.000 228.864 " stroke="none" fill="#958579" fill-rule="evenodd"></path><path id="path5" d="M166.814 117.974 C 165.902 119.678,166.751 121.476,168.281 121.079 C 168.838 120.935,168.795 120.882,168.087 120.846 C 167.019 120.792,166.615 119.992,166.961 118.615 C 167.196 117.677,167.372 117.625,170.704 117.498 L 174.200 117.365 170.714 117.282 C 167.629 117.209,167.181 117.289,166.814 117.974 M217.381 117.499 C 219.131 117.575,220.805 117.838,221.101 118.084 C 221.981 118.814,221.546 120.528,220.400 120.844 C 219.563 121.075,219.534 121.127,220.220 121.160 C 221.898 121.242,222.639 119.096,221.371 117.829 C 220.887 117.344,219.992 117.218,217.471 117.280 L 214.200 117.361 217.381 117.499 M175.891 117.889 C 176.601 117.977,177.861 117.979,178.691 117.892 C 179.521 117.805,178.940 117.733,177.400 117.731 C 175.860 117.729,175.181 117.800,175.891 117.889 M209.491 117.889 C 210.201 117.977,211.461 117.979,212.291 117.892 C 213.121 117.805,212.540 117.733,211.000 117.731 C 209.460 117.729,208.781 117.800,209.491 117.889 M187.900 118.299 C 191.475 118.366,197.325 118.366,200.900 118.299 C 204.475 118.233,201.550 118.179,194.400 118.179 C 187.250 118.179,184.325 118.233,187.900 118.299 M170.500 121.487 C 171.105 121.578,172.095 121.578,172.700 121.487 C 173.305 121.395,172.810 121.320,171.600 121.320 C 170.390 121.320,169.895 121.395,170.500 121.487 M216.105 121.487 C 216.714 121.579,217.614 121.577,218.105 121.482 C 218.597 121.387,218.100 121.311,217.000 121.314 C 215.900 121.317,215.497 121.395,216.105 121.487 M174.705 121.883 C 175.202 121.979,175.922 121.975,176.305 121.875 C 176.687 121.775,176.280 121.696,175.400 121.701 C 174.520 121.705,174.207 121.787,174.705 121.883 M210.200 122.252 C 209.220 122.731,209.184 122.790,210.000 122.574 C 210.550 122.429,211.900 122.175,213.000 122.011 L 215.000 121.713 213.200 121.689 C 212.210 121.676,210.860 121.929,210.200 122.252 M178.033 122.516 C 178.125 122.580,178.920 123.133,179.800 123.745 L 181.400 124.858 180.015 123.629 C 179.253 122.953,178.458 122.400,178.248 122.400 C 178.038 122.400,177.942 122.452,178.033 122.516 M205.578 125.100 L 204.200 126.600 205.700 125.222 C 207.096 123.938,207.384 123.600,207.078 123.600 C 207.012 123.600,206.337 124.275,205.578 125.100 M181.461 125.800 C 181.634 126.240,181.882 128.850,182.012 131.600 L 182.247 136.600 182.309 131.800 C 182.357 128.104,182.231 126.770,181.758 126.000 C 181.406 125.425,181.279 125.340,181.461 125.800 M201.654 133.067 C 201.625 133.544,201.496 134.264,201.370 134.667 C 201.152 135.361,201.164 135.362,201.596 134.688 C 201.847 134.297,201.975 133.577,201.881 133.088 C 201.709 132.201,201.709 132.201,201.654 133.067 M200.859 136.600 C 200.820 137.260,200.696 138.250,200.583 138.800 L 200.377 139.800 200.808 138.814 C 201.044 138.272,201.168 137.282,201.083 136.614 L 200.928 135.400 200.859 136.600 M181.301 140.200 C 181.305 141.080,181.387 141.393,181.483 140.895 C 181.579 140.398,181.575 139.678,181.475 139.295 C 181.375 138.913,181.296 139.320,181.301 140.200 M200.059 141.000 C 200.020 141.660,199.896 142.650,199.783 143.200 L 199.577 144.200 200.008 143.214 C 200.244 142.672,200.368 141.682,200.283 141.014 L 200.128 139.800 200.059 141.000 M180.656 142.884 C 180.521 143.388,180.430 144.340,180.453 145.000 C 180.481 145.828,180.597 145.584,180.826 144.213 C 181.176 142.123,181.074 141.326,180.656 142.884 M199.301 145.800 C 199.305 146.680,199.387 146.993,199.483 146.495 C 199.579 145.998,199.575 145.278,199.475 144.895 C 199.375 144.513,199.296 144.920,199.301 145.800 M179.856 147.284 C 179.721 147.788,179.630 148.740,179.653 149.400 C 179.681 150.228,179.797 149.984,180.026 148.613 C 180.376 146.523,180.274 145.726,179.856 147.284 M198.459 150.200 C 198.420 150.860,198.296 151.850,198.183 152.400 L 197.977 153.400 198.408 152.414 C 198.644 151.872,198.768 150.882,198.683 150.214 L 198.528 149.000 198.459 150.200 M178.901 153.800 C 178.905 154.680,178.987 154.993,179.083 154.495 C 179.179 153.998,179.175 153.278,179.075 152.895 C 178.975 152.513,178.896 152.920,178.901 153.800 M197.659 154.600 C 197.620 155.260,197.496 156.250,197.383 156.800 L 197.177 157.800 197.608 156.814 C 197.844 156.272,197.968 155.282,197.883 154.614 L 197.728 153.400 197.659 154.600 M178.256 156.484 C 178.121 156.988,178.030 157.940,178.053 158.600 C 178.081 159.428,178.197 159.184,178.426 157.813 C 178.776 155.723,178.674 154.926,178.256 156.484 M196.901 159.400 C 196.905 160.280,196.987 160.593,197.083 160.095 C 197.179 159.598,197.175 158.878,197.075 158.495 C 196.975 158.113,196.896 158.520,196.901 159.400 M177.456 160.884 C 177.321 161.388,177.230 162.340,177.253 163.000 C 177.281 163.828,177.397 163.584,177.626 162.213 C 177.976 160.123,177.874 159.326,177.456 160.884 M196.245 162.459 C 196.131 163.197,195.923 164.520,195.783 165.400 C 195.643 166.280,195.646 166.884,195.789 166.742 C 196.096 166.438,196.835 161.501,196.607 161.274 C 196.522 161.188,196.358 161.722,196.245 162.459 M176.459 167.000 C 176.420 167.660,176.296 168.650,176.183 169.200 L 175.977 170.200 176.408 169.214 C 176.644 168.672,176.768 167.682,176.683 167.014 L 176.528 165.800 176.459 167.000 M195.259 168.200 C 195.220 168.860,195.096 169.850,194.983 170.400 L 194.777 171.400 195.208 170.414 C 195.444 169.872,195.568 168.882,195.483 168.214 L 195.328 167.000 195.259 168.200 M175.701 171.800 C 175.705 172.680,175.787 172.993,175.883 172.495 C 175.979 171.998,175.975 171.278,175.875 170.895 C 175.775 170.513,175.696 170.920,175.701 171.800 M133.376 171.906 C 133.143 172.068,131.443 174.180,129.598 176.600 C 116.551 193.712,109.461 202.078,101.895 209.289 C 91.624 219.078,80.994 230.998,81.458 232.207 C 82.322 234.459,93.052 224.376,106.257 208.904 C 110.798 203.583,121.589 194.723,130.997 188.591 C 144.269 179.940,155.786 177.732,156.846 183.636 L 157.163 185.400 157.023 183.433 C 156.734 179.364,151.834 178.790,143.000 181.790 C 139.061 183.127,126.180 190.625,124.800 192.384 C 124.690 192.524,123.970 193.070,123.200 193.598 C 121.499 194.763,116.953 198.383,112.504 202.115 C 110.690 203.636,107.096 207.337,104.515 210.340 C 99.465 216.218,85.317 230.661,83.479 231.815 C 81.677 232.947,81.453 232.013,83.042 229.995 C 87.827 223.916,103.381 207.683,106.315 205.705 C 106.818 205.366,108.595 203.449,110.263 201.444 C 111.932 199.440,113.680 197.348,114.148 196.796 C 116.651 193.846,118.907 191.005,124.945 183.200 C 128.605 178.470,132.149 173.925,132.822 173.100 C 134.052 171.591,134.158 171.364,133.376 171.906 M194.501 173.000 C 194.505 173.880,194.587 174.193,194.683 173.695 C 194.779 173.198,194.775 172.478,194.675 172.095 C 194.575 171.713,194.496 172.120,194.501 173.000 M134.446 172.498 C 134.409 173.063,132.005 176.496,128.919 180.392 C 126.580 183.345,124.431 186.098,123.600 187.208 C 122.495 188.682,120.729 190.888,120.404 191.200 C 120.289 191.310,119.722 192.030,119.142 192.800 C 118.563 193.570,117.620 194.740,117.046 195.400 C 115.280 197.431,116.587 196.970,119.871 194.403 C 125.193 190.244,134.760 183.980,138.160 182.428 C 139.942 181.614,141.850 180.734,142.400 180.472 L 143.400 179.996 142.400 180.239 C 138.645 181.153,128.329 187.369,120.632 193.355 C 117.270 195.970,117.438 195.514,121.894 189.940 C 124.066 187.223,127.702 182.570,129.975 179.600 C 132.249 176.630,134.279 173.984,134.487 173.719 C 134.696 173.455,134.782 172.915,134.679 172.519 C 134.508 171.858,134.489 171.857,134.446 172.498 M175.056 174.484 C 174.921 174.988,174.830 175.940,174.853 176.600 C 174.881 177.428,174.997 177.184,175.226 175.813 C 175.576 173.723,175.474 172.926,175.056 174.484 M193.845 176.059 C 193.731 176.797,193.523 178.120,193.383 179.000 C 193.243 179.880,193.246 180.484,193.389 180.342 C 193.696 180.038,194.435 175.101,194.207 174.874 C 194.122 174.788,193.958 175.322,193.845 176.059 M151.505 178.283 C 152.002 178.379,152.722 178.375,153.105 178.275 C 153.487 178.175,153.080 178.096,152.200 178.101 C 151.320 178.105,151.007 178.187,151.505 178.283 M174.245 179.259 C 174.131 179.997,173.923 181.320,173.783 182.200 C 173.643 183.080,173.646 183.684,173.789 183.542 C 174.096 183.238,174.835 178.301,174.607 178.074 C 174.522 177.988,174.358 178.522,174.245 179.259 M147.200 178.800 C 146.225 179.112,146.230 179.121,147.400 179.132 C 148.060 179.138,148.960 178.989,149.400 178.800 C 150.494 178.330,148.667 178.330,147.200 178.800 M154.400 178.680 C 158.296 180.089,159.192 182.405,157.850 187.600 C 157.637 188.424,157.695 188.389,158.178 187.400 C 160.033 183.603,157.864 178.285,154.520 178.432 C 153.964 178.456,153.937 178.513,154.400 178.680 M144.200 179.600 L 143.400 179.944 144.200 179.966 C 144.640 179.978,145.270 179.813,145.600 179.600 C 146.395 179.086,145.396 179.086,144.200 179.600 M192.859 181.800 C 192.820 182.460,192.696 183.450,192.583 184.000 L 192.377 185.000 192.808 184.014 C 193.044 183.472,193.168 182.482,193.083 181.814 L 192.928 180.600 192.859 181.800 M173.301 185.400 C 173.305 186.280,173.387 186.593,173.483 186.095 C 173.579 185.598,173.575 184.878,173.475 184.495 C 173.375 184.113,173.296 184.520,173.301 185.400 M192.101 186.600 C 192.105 187.480,192.187 187.793,192.283 187.295 C 192.379 186.798,192.375 186.078,192.275 185.695 C 192.175 185.313,192.096 185.720,192.101 186.600 M156.446 185.867 C 156.421 186.124,156.284 186.664,156.141 187.067 C 155.940 187.636,155.994 187.697,156.379 187.342 C 156.652 187.091,156.789 186.551,156.684 186.142 C 156.579 185.734,156.472 185.610,156.446 185.867 M172.656 188.084 C 172.521 188.588,172.430 189.540,172.453 190.200 C 172.481 191.028,172.597 190.784,172.826 189.413 C 173.176 187.323,173.074 186.526,172.656 188.084 M155.124 189.310 C 150.863 198.243,134.076 211.556,122.221 215.402 C 114.777 217.817,107.600 217.869,107.600 215.507 C 107.600 214.442,106.394 214.120,105.742 215.011 C 105.444 215.419,105.212 215.944,105.227 216.176 C 105.242 216.409,105.449 216.195,105.688 215.700 C 106.270 214.494,107.200 214.547,107.200 215.786 C 107.200 217.206,108.280 217.600,112.168 217.600 C 122.843 217.600,137.201 210.119,148.081 198.888 C 152.210 194.626,156.953 188.000,155.874 188.000 C 155.805 188.000,155.467 188.589,155.124 189.310 M191.456 189.284 C 191.321 189.788,191.230 190.740,191.253 191.400 C 191.281 192.228,191.397 191.984,191.626 190.613 C 191.976 188.523,191.874 187.726,191.456 189.284 M154.639 193.225 C 147.972 203.250,130.914 215.435,120.253 217.786 C 119.622 217.925,119.213 218.146,119.343 218.277 C 120.025 218.958,129.624 214.874,134.716 211.736 C 143.498 206.323,153.427 196.949,156.361 191.300 C 157.254 189.581,156.507 190.416,154.639 193.225 M171.783 192.948 C 171.644 193.689,171.591 194.724,171.665 195.248 L 171.800 196.200 181.200 196.200 L 190.600 196.200 190.666 195.200 C 190.723 194.319,190.708 194.307,190.538 195.100 L 190.344 196.000 181.116 196.000 L 171.888 196.000 172.115 193.800 C 172.367 191.356,172.175 190.861,171.783 192.948 M179.744 213.401 C 179.617 213.731,179.624 214.442,179.759 214.980 C 179.932 215.669,179.797 216.086,179.302 216.394 C 178.659 216.793,178.668 216.819,179.400 216.701 C 180.067 216.593,180.179 216.314,180.075 215.025 C 179.997 214.064,180.149 213.352,180.475 213.145 C 180.892 212.881,180.895 212.811,180.487 212.806 C 180.206 212.803,179.871 213.070,179.744 213.401 M181.838 213.700 C 183.018 215.094,183.287 215.213,185.000 215.103 C 187.068 214.970,187.140 215.815,185.158 216.964 C 180.403 219.719,179.404 220.668,180.775 221.125 C 181.083 221.228,181.225 221.074,181.118 220.754 C 180.909 220.126,181.678 219.479,184.914 217.567 C 187.962 215.766,188.011 214.608,185.039 214.585 C 183.468 214.573,182.961 214.394,182.490 213.685 C 182.167 213.198,181.716 212.800,181.489 212.800 C 181.262 212.800,181.419 213.205,181.838 213.700 M199.070 214.181 C 198.229 214.481,197.419 214.861,197.270 215.027 C 197.122 215.192,197.360 215.186,197.800 215.013 C 199.708 214.264,202.511 213.960,203.740 214.369 C 204.897 214.755,204.937 214.741,204.224 214.195 C 203.267 213.462,201.101 213.456,199.070 214.181 M159.456 214.293 C 160.850 214.392,161.738 214.690,162.218 215.219 C 162.606 215.649,163.256 216.000,163.662 216.000 C 164.916 216.000,164.477 217.143,162.900 217.983 C 160.895 219.051,159.414 220.353,159.798 220.710 C 159.969 220.870,160.192 220.770,160.292 220.489 C 160.392 220.207,161.448 219.354,162.637 218.593 C 164.842 217.183,165.354 216.177,164.100 215.719 C 163.715 215.579,162.971 215.134,162.446 214.732 C 161.768 214.211,160.901 214.021,159.446 214.074 L 157.400 214.148 159.456 214.293 M137.000 215.151 C 132.879 216.639,130.400 218.482,130.400 220.058 C 130.400 220.835,131.725 222.400,132.382 222.400 C 132.592 222.400,132.333 221.970,131.808 221.444 C 130.612 220.248,130.845 219.112,132.552 217.809 C 135.436 215.610,141.265 214.092,142.594 215.195 C 142.940 215.482,143.200 215.524,143.200 215.292 C 143.200 214.196,139.856 214.120,137.000 215.151 M229.000 216.000 C 227.983 216.880,227.336 217.600,227.562 217.600 C 227.787 217.600,228.587 217.060,229.339 216.400 C 230.091 215.740,230.997 215.200,231.353 215.200 C 231.709 215.200,232.000 215.020,232.000 214.800 C 232.000 213.969,230.785 214.455,229.000 216.000 M234.600 215.033 C 233.720 215.362,232.661 215.709,232.246 215.803 C 231.340 216.009,230.985 216.318,231.295 216.628 C 231.420 216.753,232.288 216.486,233.223 216.035 C 238.476 213.497,240.920 215.134,237.566 218.944 L 235.932 220.800 237.173 220.800 C 237.856 220.800,239.716 220.461,241.307 220.047 C 242.898 219.632,244.716 219.174,245.347 219.027 C 245.978 218.881,246.408 218.675,246.303 218.569 C 246.197 218.464,244.331 218.831,242.155 219.385 C 236.625 220.794,236.383 220.758,238.153 218.799 C 241.177 215.452,239.169 213.325,234.600 215.033 M212.800 216.035 C 211.370 216.715,208.040 217.874,205.400 218.612 C 202.760 219.350,200.978 219.964,201.440 219.977 C 201.902 219.989,202.802 219.841,203.440 219.647 C 204.078 219.452,205.410 219.071,206.400 218.800 C 209.087 218.064,210.347 217.599,213.057 216.341 C 216.778 214.614,218.200 214.818,219.737 217.300 C 220.443 218.439,224.907 218.954,226.318 218.059 C 226.603 217.878,225.407 217.813,223.661 217.914 C 220.706 218.085,220.466 218.040,220.219 217.259 C 219.398 214.674,216.628 214.217,212.800 216.035 M153.200 216.161 C 152.430 216.664,150.990 217.359,150.000 217.706 C 149.010 218.053,148.510 218.351,148.889 218.368 C 149.708 218.406,153.465 216.754,154.600 215.857 C 155.811 214.901,154.792 215.122,153.200 216.161 M195.083 216.221 C 193.244 217.471,191.483 218.113,185.800 219.609 C 183.380 220.246,181.796 220.775,182.280 220.784 C 182.765 220.793,184.205 220.514,185.480 220.165 C 186.756 219.816,188.340 219.385,189.000 219.207 C 192.198 218.344,194.323 217.427,195.585 216.365 C 197.293 214.928,197.078 214.866,195.083 216.221 M200.616 215.563 C 200.125 215.755,200.799 215.871,202.416 215.874 C 204.177 215.877,204.682 215.783,204.000 215.579 C 202.695 215.189,201.586 215.183,200.616 215.563 M159.400 215.891 C 161.584 216.202,161.421 216.737,158.768 217.958 C 157.356 218.609,156.391 219.154,156.625 219.170 C 157.264 219.215,161.092 217.298,161.418 216.770 C 161.811 216.135,160.837 215.602,159.400 215.666 L 158.200 215.720 159.400 215.891 M142.346 216.943 C 141.770 217.698,141.279 217.804,138.202 217.833 C 132.976 217.882,130.045 220.488,134.635 221.006 L 136.200 221.182 134.500 220.768 C 131.102 219.939,132.893 218.670,137.864 218.386 C 141.336 218.187,144.063 217.093,143.178 216.254 C 143.080 216.161,142.706 216.471,142.346 216.943 M155.779 216.717 C 150.725 219.544,149.215 222.219,153.681 220.433 C 154.187 220.230,154.941 219.956,155.357 219.823 C 155.774 219.690,156.029 219.496,155.925 219.392 C 155.821 219.288,154.885 219.492,153.846 219.846 C 152.807 220.200,151.860 220.393,151.741 220.274 C 151.446 219.979,154.639 217.670,156.600 216.760 C 157.480 216.352,157.930 216.021,157.600 216.026 C 157.270 216.030,156.450 216.341,155.779 216.717 M197.094 216.891 C 195.568 217.775,195.378 218.321,196.424 218.815 C 196.741 218.964,197.568 219.382,198.262 219.743 C 198.956 220.104,199.766 220.393,200.062 220.385 C 200.358 220.377,199.655 219.914,198.500 219.355 C 195.957 218.125,195.905 217.786,198.100 216.789 C 199.035 216.365,199.530 216.018,199.200 216.018 C 198.870 216.018,197.922 216.411,197.094 216.891 M234.853 216.653 C 234.113 216.976,233.590 217.324,233.692 217.425 C 233.794 217.527,234.554 217.328,235.382 216.982 C 237.502 216.096,237.606 216.549,235.732 218.508 C 233.071 221.290,233.292 222.860,236.329 222.743 L 237.800 222.686 236.200 222.443 C 233.883 222.091,233.807 220.742,235.983 218.617 C 238.457 216.200,237.942 215.305,234.853 216.653 M105.696 217.176 C 105.897 217.924,107.908 219.425,108.251 219.083 C 108.396 218.938,108.174 218.698,107.757 218.551 C 107.341 218.404,106.672 217.905,106.270 217.442 C 105.863 216.971,105.609 216.854,105.696 217.176 M175.800 217.600 C 174.700 218.006,174.160 218.339,174.600 218.339 C 175.040 218.340,176.120 218.007,177.000 217.600 C 179.056 216.648,178.379 216.648,175.800 217.600 M212.062 218.391 C 209.393 220.117,208.998 220.800,210.670 220.800 C 211.754 220.800,217.422 218.211,217.848 217.522 C 218.372 216.675,217.616 216.823,216.599 217.766 C 215.459 218.822,211.446 220.520,210.569 220.317 C 209.838 220.148,213.761 217.556,215.302 217.190 C 216.467 216.913,216.494 216.878,215.562 216.841 C 214.976 216.818,213.453 217.492,212.062 218.391 M248.000 217.833 C 246.486 218.453,246.474 218.453,250.151 217.723 C 251.976 217.360,251.254 218.500,249.249 219.145 C 247.103 219.835,247.367 220.222,249.540 219.571 C 251.111 219.100,251.837 218.307,251.378 217.564 C 251.060 217.050,249.639 217.163,248.000 217.833 M179.067 218.280 C 176.353 219.706,167.424 221.802,161.600 222.381 C 158.632 222.676,158.624 222.680,160.857 222.740 C 163.379 222.807,169.663 221.650,174.770 220.179 C 178.467 219.113,178.702 219.127,177.931 220.362 C 177.047 221.777,177.915 222.594,180.343 222.635 L 182.405 222.670 180.438 222.515 C 177.603 222.293,177.342 220.805,179.797 218.873 C 181.468 217.559,181.064 217.231,179.067 218.280 M231.200 218.508 C 230.430 218.971,228.752 220.036,227.472 220.875 C 224.359 222.914,223.201 222.919,224.623 220.889 C 225.239 220.009,225.227 220.000,223.410 220.000 C 222.400 220.000,220.940 219.735,220.165 219.411 C 218.812 218.846,218.652 218.875,216.078 220.163 C 214.605 220.901,212.860 221.638,212.200 221.801 C 211.540 221.965,211.201 222.173,211.446 222.265 C 211.984 222.465,215.710 221.039,217.449 219.967 C 218.602 219.257,218.808 219.244,220.136 219.799 C 220.927 220.130,222.216 220.400,223.001 220.400 C 224.309 220.400,224.392 220.467,223.996 221.208 C 223.514 222.108,223.768 222.800,224.580 222.800 C 225.011 222.800,228.305 220.888,232.800 218.029 C 234.014 217.256,232.554 217.694,231.200 218.508 M115.600 218.800 L 114.600 219.120 115.600 219.113 C 116.150 219.109,117.140 218.968,117.800 218.800 L 119.000 218.495 117.800 218.487 C 117.140 218.483,116.150 218.624,115.600 218.800 M144.000 219.240 C 142.350 219.654,139.920 220.152,138.600 220.347 C 136.863 220.603,136.587 220.715,137.600 220.750 C 139.326 220.811,147.376 219.157,147.898 218.635 C 148.265 218.268,147.248 218.426,144.000 219.240 M172.367 218.561 C 172.178 218.742,164.840 220.279,163.000 220.522 C 161.975 220.657,162.027 220.689,163.354 220.740 C 164.208 220.773,165.558 220.633,166.354 220.428 C 167.149 220.224,168.880 219.835,170.200 219.563 C 172.785 219.032,174.326 218.434,173.167 218.412 C 172.818 218.405,172.458 218.472,172.367 218.561 M110.100 219.491 C 110.925 219.578,112.275 219.578,113.100 219.491 C 113.925 219.405,113.250 219.334,111.600 219.334 C 109.950 219.334,109.275 219.405,110.100 219.491 M190.800 219.959 C 189.810 220.334,187.563 220.978,185.806 221.390 C 184.050 221.801,182.818 222.206,183.069 222.290 C 183.598 222.466,187.486 221.524,191.140 220.335 C 193.359 219.613,193.810 219.577,194.699 220.053 L 195.717 220.598 194.184 221.028 C 191.099 221.893,191.428 223.804,194.600 223.443 C 196.921 223.180,202.047 221.651,200.704 221.623 C 200.102 221.610,198.662 221.960,197.504 222.400 C 194.786 223.433,192.800 223.468,192.800 222.483 C 192.800 221.971,193.315 221.628,194.600 221.284 C 196.419 220.798,197.055 220.000,195.624 220.000 C 195.197 220.000,194.736 219.820,194.600 219.600 C 194.251 219.036,192.896 219.164,190.800 219.959 M147.083 220.251 C 146.945 220.389,146.060 220.659,145.116 220.852 C 139.962 221.904,138.742 222.109,136.000 222.381 L 133.000 222.679 135.400 222.736 C 137.404 222.784,144.509 221.551,147.906 220.566 C 148.662 220.347,148.772 220.427,148.568 221.052 C 148.374 221.647,148.408 221.681,148.736 221.219 C 149.410 220.268,147.931 219.402,147.083 220.251 M205.600 220.438 C 205.138 220.767,205.253 220.810,206.100 220.625 C 207.062 220.415,207.200 220.506,207.200 221.350 C 207.200 222.443,207.896 222.826,209.733 222.743 C 210.887 222.692,210.857 222.665,209.400 222.443 C 208.024 222.234,207.782 222.046,207.673 221.100 C 207.539 219.932,206.693 219.662,205.600 220.438 M245.200 220.400 C 244.405 220.914,245.404 220.914,246.600 220.400 L 247.400 220.056 246.600 220.034 C 246.160 220.022,245.530 220.187,245.200 220.400 M153.800 221.654 C 152.700 222.081,151.140 222.376,150.334 222.308 C 149.527 222.241,148.953 222.324,149.057 222.493 C 149.407 223.058,151.819 222.809,154.385 221.942 C 156.726 221.152,156.964 221.136,157.407 221.742 C 158.091 222.678,158.507 222.560,157.907 221.600 C 157.299 220.627,156.412 220.638,153.800 221.654 M202.400 221.200 C 201.636 221.694,202.458 221.694,204.000 221.200 L 205.000 220.880 204.000 220.846 C 203.450 220.827,202.730 220.987,202.400 221.200 M242.000 221.200 C 241.236 221.694,242.058 221.694,243.600 221.200 L 244.600 220.880 243.600 220.846 C 243.050 220.827,242.330 220.987,242.000 221.200 M238.600 222.000 L 237.800 222.344 238.600 222.332 C 239.040 222.326,239.850 222.176,240.400 222.000 L 241.400 221.680 240.400 221.668 C 239.850 221.662,239.040 221.811,238.600 222.000 M166.080 227.280 C 165.816 227.544,165.611 228.039,165.625 228.380 C 165.641 228.760,165.791 228.652,166.012 228.100 C 166.373 227.203,166.405 227.200,175.632 227.200 L 184.889 227.200 184.658 228.700 C 184.443 230.088,184.458 230.117,184.851 229.087 C 185.719 226.812,185.670 226.800,175.693 226.800 C 169.123 226.800,166.425 226.935,166.080 227.280 M165.301 230.600 C 165.305 231.480,165.387 231.793,165.483 231.295 C 165.579 230.798,165.575 230.078,165.475 229.695 C 165.375 229.313,165.296 229.720,165.301 230.600 M184.101 231.800 C 184.105 232.680,184.187 232.993,184.283 232.495 C 184.379 231.998,184.375 231.278,184.275 230.895 C 184.175 230.513,184.096 230.920,184.101 231.800 M164.656 233.284 C 164.521 233.788,164.430 234.740,164.453 235.400 C 164.481 236.228,164.597 235.984,164.826 234.613 C 165.176 232.523,165.074 231.726,164.656 233.284 M183.259 236.200 C 183.220 236.860,183.096 237.850,182.983 238.400 L 182.777 239.400 183.208 238.414 C 183.444 237.872,183.568 236.882,183.483 236.214 L 183.328 235.000 183.259 236.200 M163.856 237.684 C 163.721 238.188,163.630 239.140,163.653 239.800 C 163.681 240.628,163.797 240.384,164.026 239.013 C 164.376 236.923,164.274 236.126,163.856 237.684 M182.459 240.600 C 182.420 241.260,182.296 242.250,182.183 242.800 L 181.977 243.800 182.408 242.814 C 182.644 242.272,182.768 241.282,182.683 240.614 L 182.528 239.400 182.459 240.600 M162.901 244.200 C 162.905 245.080,162.987 245.393,163.083 244.895 C 163.179 244.398,163.175 243.678,163.075 243.295 C 162.975 242.913,162.896 243.320,162.901 244.200 M181.701 245.400 C 181.705 246.280,181.787 246.593,181.883 246.095 C 181.979 245.598,181.975 244.878,181.875 244.495 C 181.775 244.113,181.696 244.520,181.701 245.400 M162.256 246.884 C 162.121 247.388,162.030 248.340,162.053 249.000 C 162.081 249.828,162.197 249.584,162.426 248.213 C 162.776 246.123,162.674 245.326,162.256 246.884 M181.045 248.459 C 180.931 249.197,180.723 250.520,180.583 251.400 C 180.443 252.280,180.446 252.884,180.589 252.742 C 180.896 252.438,181.635 247.501,181.407 247.274 C 181.322 247.188,181.158 247.722,181.045 248.459 M161.456 251.284 C 161.321 251.788,161.230 252.740,161.253 253.400 C 161.281 254.228,161.397 253.984,161.626 252.613 C 161.976 250.523,161.874 249.726,161.456 251.284 M180.059 254.200 C 180.020 254.860,179.896 255.850,179.783 256.400 L 179.577 257.400 180.008 256.414 C 180.244 255.872,180.368 254.882,180.283 254.214 L 180.128 253.000 180.059 254.200 M225.800 254.670 C 220.334 255.884,217.195 260.058,217.206 266.096 C 217.209 267.913,217.344 269.608,217.506 269.863 C 217.668 270.118,217.739 268.665,217.664 266.636 C 217.417 259.941,220.034 256.452,226.400 254.988 C 227.610 254.710,228.150 254.484,227.600 254.487 C 227.050 254.490,226.240 254.573,225.800 254.670 M160.645 256.059 C 160.531 256.797,160.323 258.120,160.183 259.000 C 160.043 259.880,160.046 260.484,160.189 260.342 C 160.496 260.038,161.235 255.101,161.007 254.874 C 160.922 254.788,160.758 255.322,160.645 256.059 M237.863 257.200 C 239.529 259.047,240.787 261.364,240.854 262.712 C 240.906 263.732,240.920 263.740,241.089 262.846 C 241.331 261.569,239.850 258.781,238.055 257.135 L 236.600 255.800 237.863 257.200 M179.293 258.800 C 179.293 259.570,179.375 259.885,179.476 259.500 C 179.576 259.115,179.576 258.485,179.476 258.100 C 179.375 257.715,179.293 258.030,179.293 258.800 M159.701 262.200 C 159.705 263.080,159.787 263.393,159.883 262.895 C 159.979 262.398,159.975 261.678,159.875 261.295 C 159.775 260.913,159.696 261.320,159.701 262.200 M178.460 262.467 C 178.427 263.054,178.296 263.864,178.170 264.267 C 177.952 264.960,177.965 264.961,178.395 264.290 C 178.646 263.899,178.777 263.089,178.686 262.490 L 178.520 261.400 178.460 262.467 M159.056 264.884 C 158.921 265.388,158.828 266.250,158.849 266.800 C 158.872 267.389,159.031 267.071,159.236 266.025 C 159.603 264.152,159.473 263.327,159.056 264.884 M241.324 266.200 C 241.326 267.520,241.401 268.012,241.490 267.293 C 241.579 266.574,241.577 265.494,241.486 264.893 C 241.395 264.292,241.322 264.880,241.324 266.200 M177.660 266.067 C 177.627 266.654,177.496 267.464,177.370 267.867 C 177.152 268.560,177.165 268.561,177.595 267.890 C 177.846 267.499,177.977 266.689,177.886 266.090 L 177.720 265.000 177.660 266.067 M158.256 268.884 C 158.121 269.388,158.028 270.250,158.049 270.800 C 158.072 271.389,158.231 271.071,158.436 270.025 C 158.803 268.152,158.673 267.327,158.256 268.884 M176.832 269.526 C 176.814 270.036,176.645 270.756,176.456 271.126 C 176.267 271.497,176.007 272.430,175.879 273.200 C 175.722 274.139,175.755 274.336,175.980 273.800 C 176.728 272.015,177.285 269.660,177.080 269.146 C 176.957 268.837,176.849 269.002,176.832 269.526 M240.860 269.713 C 240.764 271.502,238.936 274.660,237.306 275.853 C 235.268 277.345,234.737 277.906,236.200 277.020 C 239.055 275.292,241.403 271.756,241.083 269.667 L 240.920 268.600 240.860 269.713 M218.015 271.200 C 218.021 271.530,218.290 272.149,218.613 272.576 C 219.368 273.575,219.363 273.205,218.602 271.746 C 218.274 271.116,218.010 270.870,218.015 271.200 M157.449 272.615 C 157.312 272.973,157.221 273.746,157.246 274.333 C 157.280 275.132,157.370 274.998,157.604 273.800 C 157.935 272.100,157.862 271.540,157.449 272.615 M221.115 275.500 C 222.084 276.435,223.080 277.200,223.328 277.200 C 223.575 277.200,223.333 276.903,222.789 276.540 C 222.245 276.176,221.249 275.411,220.577 274.840 C 219.904 274.268,220.146 274.565,221.115 275.500 M224.252 277.599 C 224.443 277.783,225.500 278.032,226.600 278.151 C 228.620 278.369,228.285 278.208,225.452 277.597 C 224.600 277.413,224.060 277.414,224.252 277.599 M173.621 280.711 C 172.299 284.878,170.272 289.877,168.366 293.668 C 167.500 295.391,166.881 296.800,166.991 296.800 C 167.897 296.800,175.135 279.177,174.722 277.976 C 174.655 277.782,174.159 279.013,173.621 280.711 M229.500 278.682 C 229.995 278.778,230.805 278.778,231.300 278.682 C 231.795 278.587,231.390 278.509,230.400 278.509 C 229.410 278.509,229.005 278.587,229.500 278.682 M155.879 279.470 C 154.914 283.109,154.715 284.049,154.878 284.211 C 154.982 284.315,155.359 283.193,155.718 281.718 C 156.278 279.409,156.420 277.430,155.879 279.470 M153.040 289.240 C 152.227 291.690,151.631 293.765,151.716 293.849 C 151.801 293.934,152.535 291.998,153.347 289.547 C 154.159 287.095,154.755 285.021,154.671 284.937 C 154.587 284.853,153.853 286.790,153.040 289.240 M150.790 295.400 C 150.576 295.950,150.209 296.895,149.975 297.500 C 149.741 298.105,149.714 298.420,149.915 298.200 C 150.386 297.683,151.658 294.400,151.387 294.400 C 151.273 294.400,151.005 294.850,150.790 295.400 M165.454 298.943 C 162.382 304.186,155.231 311.456,149.260 315.408 C 147.433 316.617,146.937 317.313,148.700 316.193 C 154.717 312.370,163.047 303.969,165.960 298.786 C 167.173 296.627,166.731 296.765,165.454 298.943 M148.025 301.700 C 147.237 303.267,147.232 303.322,147.964 302.400 C 148.671 301.509,149.324 300.000,149.003 300.000 C 148.936 300.000,148.496 300.765,148.025 301.700 M145.689 305.828 C 144.992 307.041,144.583 307.934,144.779 307.813 C 145.213 307.545,147.264 303.930,147.084 303.750 C 147.013 303.680,146.386 304.615,145.689 305.828 M143.544 309.100 C 142.393 310.489,141.906 311.200,142.104 311.200 C 142.214 311.200,142.786 310.570,143.373 309.800 C 144.463 308.371,144.595 307.832,143.544 309.100 M139.387 314.033 C 138.074 315.372,135.515 317.553,133.700 318.880 C 129.832 321.709,129.282 322.424,132.896 319.926 C 135.145 318.371,142.507 311.638,141.987 311.611 C 141.871 311.605,140.701 312.695,139.387 314.033 M140.200 320.635 C 137.427 322.186,137.513 322.477,140.313 321.016 C 142.566 319.841,143.547 319.197,143.000 319.253 C 142.780 319.275,141.520 319.897,140.200 320.635 M135.700 322.826 C 134.765 323.265,134.000 323.719,134.000 323.835 C 134.000 323.952,134.135 323.977,134.300 323.891 C 134.465 323.805,135.275 323.426,136.100 323.048 C 136.925 322.671,137.600 322.281,137.600 322.181 C 137.600 321.933,137.616 321.928,135.700 322.826 " stroke="none" fill="#c6bdba" fill-rule="evenodd"></path></g></svg>